<svg width="207" height="271" viewBox="0 0 207 271" fill="none" xmlns="http://www.w3.org/2000/svg">
<path d="M129.292 245.121C129.292 245.121 143.004 248.707 146.506 255.162C150.008 261.617 156.083 267.144 156.083 267.144L164.69 295.37L175.238 319.757L183.381 345.578L193.422 377.179L196.756 391.525L200.595 398.697L203.928 412.578L203.464 416.881L208.232 423.59L212.535 440.804L218.273 455.149L221.606 468.06L227.344 479.536L232.618 487.214L252.237 528.857L268.987 559.488L270.886 568.095L258.903 576.702L230.677 590.583L210.088 561.893L197.177 537.507L182.832 506.412L173.255 492.995L171.82 499.703V532.739L171.356 542.316L165.154 547.59L136.928 552.864L131.654 551.894L120.642 555.227L101.487 553.328L67.9876 551.43C67.9876 551.43 54.1067 555.269 49.8031 546.662L50.2672 534.68L49.339 519.364L49.2968 489.704L47.8623 474.852L49.2968 462.406L47.8623 449.96V430.805L42.5884 434.644L36.2597 455.908L28.0746 482.194L24.9102 518.9L23.0116 545.228L20.6067 569.614L17.7377 593.073C17.7377 593.073 19.9317 605.983 4.32088 605.983L-31.0777 603.114C-31.0777 603.114 -37.2798 596.406 -36.3516 590.204C-35.3812 584.001 -33.4826 577.293 -33.4826 577.293L-33.9467 559.573L-31.0777 530.883L-27.7446 498.353L-25.3397 474.43L-19.5594 443.335L-11.8806 410.764L0.523649 378.276L16.3032 336.169L37.3567 289.295C37.3567 289.295 47.9045 269.676 56.9756 260.098C66.089 250.521 88.0707 243.813 88.0707 243.813C88.0707 243.813 95.7495 247.652 102.922 247.146C110.095 246.682 117.773 250.479 124.44 242.378L129.292 245.121Z" fill="white"/>
<path d="M45.7949 7.79422C47.82 9.10215 50.0984 9.65064 51.4063 11.6758C52.4189 15.5574 58.7476 17.4138 57.3131 22.308C57.735 23.1519 58.0303 24.1645 57.735 25.0505C53.3049 26.3584 50.8578 30.0712 47.3981 32.5183C40.2256 32.6449 42.6727 40.2815 36.344 42.138C31.4498 42.138 24.9945 46.0196 21.2817 40.9988C18.4127 35.978 16.8516 29.9447 15.1218 24.2066C15.2483 20.4938 19.4253 19.3125 19.2987 15.4308C20.6066 12.4353 23.4756 10.1147 26.0493 8.25832C31.0701 7.54107 35.247 4.79863 40.6897 5.38931C42.6727 5.51589 45.0776 5.81122 45.7949 7.79422Z" fill="#EC1C24"/>
<path d="M127.477 242.8C132.372 242.927 135.662 246.26 139.839 247.947C141.274 252.124 146.295 251.534 148.151 255.12C149.164 256.976 150.176 259.002 151.189 260.731C151.189 261.153 150.598 262.039 150.05 261.575C149.628 260.985 148.911 261.702 148.32 261.702C145.155 262.419 141.569 264.149 138.405 262.292C133.806 264.318 128.195 264.74 122.921 264.022C121.613 263.432 119.334 262.588 118.195 264.149C116.761 264.275 115.031 265.879 113.048 265.457C110.77 265.161 108.027 265.752 106.297 264.318C101.994 268.03 97.3949 263.896 92.6695 264.444C89.3785 264.444 86.2142 268.326 83.1764 265.161C79.7167 260.985 74.5694 265.583 70.6878 262.588C66.975 263.01 64.3591 260.563 61.2369 260.014C60.815 259.423 59.929 259.719 59.5071 259.423L58.9164 260.141C58.3257 260.014 57.9038 259.423 57.9038 258.833C59.929 257.525 61.0682 255.246 63.2199 253.939C68.3673 249.635 74.1475 247.061 80.1809 244.741C83.8937 245.332 86.8049 241.872 89.927 244.614C93.6399 244.614 97.0996 246.175 100.855 245.332C104.441 247.61 108.871 245.036 112.921 246.893C117.225 244.741 122.414 245.332 126.254 242.167C126.929 242.083 126.929 242.8 127.477 242.8Z" fill="#EC1C24"/>
<path d="M132.076 30.1978C135.072 35.2186 138.827 39.944 138.827 45.8508C135.24 47.4119 132.92 51.1669 128.912 51.7576C124.018 54.0359 118.28 56.3564 114.145 60.238C109.673 60.3646 107.268 63.6977 103.513 65.3854C102.373 66.1026 100.644 65.8073 99.5044 66.1027C96.4666 69.6889 91.91 69.5623 88.4503 72.8533C87.1423 72.8533 86.2985 74.1612 84.7374 73.6971C81.5731 76.7349 78.1134 79.1398 74.1053 80.3211C70.3924 82.7682 67.9453 85.2153 63.3464 85.7638C60.3087 88.0421 57.4819 90.0673 53.8956 91.2065C51.0266 94.7928 46.1324 95.0881 43.2634 97.9571C41.5335 99.5182 38.2426 98.0837 36.8081 100.531C33.3484 100.531 31.0701 98.8009 28.4964 96.6492C28.0745 92.4722 23.0537 92.641 22.463 88.3375C21.4504 85.5951 19.0034 81.2915 21.1551 79.1398C24.3195 76.8614 28.3276 77.2834 30.7747 73.6971C34.4876 72.6845 38.0738 71.4188 41.5335 69.6889C44.276 67.8325 46.2589 64.9635 49.7186 65.3854C52.1657 63.2336 54.4441 60.7865 58.0303 60.9131C62.6292 55.597 69.5064 56.1877 74.4006 50.9981C75.4132 49.5636 77.9868 50.2809 79.4213 49.859C83.1342 48.4245 84.864 44.5429 89.3363 44.9648C91.7834 43.4037 93.7664 40.9566 96.9307 41.3785C100.812 37.9188 105.707 36.4843 109.841 33.4887L114.018 32.8981C116.592 31.337 117.731 28.1726 121.613 29.1852C123.764 27.7507 126.338 26.3162 128.912 26.4428L132.076 30.1978Z" fill="#EC1C24"/>
<path d="M34.2767 0.495172L34.1502 10.1148C33.5595 10.5367 33.011 12.2666 32.125 11.254C31.5343 10.832 31.9984 9.22877 30.8171 9.1022C30.5217 9.98822 30.2264 10.9586 29.0872 10.832C27.6527 11.254 27.2308 7.96304 26.0494 10.4101C26.176 11.8446 25.2056 13.1526 23.8977 13.5745L22.7585 13.8698C22.7585 14.8824 23.0539 17.0342 21.1974 16.9076C18.7503 16.781 17.9065 13.4479 15.0375 13.6167C14.1936 13.026 14.6156 11.8868 14.9109 10.8742C15.9235 10.157 17.6534 8.84906 19.3832 9.31316C20.3958 10.7477 20.5224 12.8994 21.9569 13.4901C21.6615 12.3509 21.5349 10.6211 21.6615 8.89125C22.8007 6.31758 27.1042 9.77727 27.1042 5.89567C28.4121 6.19101 29.256 4.88307 30.3951 5.30498C29.8045 3.2798 31.1124 1.29681 32.4203 0.11545C33.0954 0.199832 33.9814 -0.390846 34.2767 0.495172Z" fill="#231F20"/>
<path d="M42.293 4.79867C43.1368 4.92524 44.1494 5.22058 44.3182 6.23318C44.4447 7.37234 44.3182 8.38493 43.179 8.68027C40.6053 8.38493 38.2848 9.27095 36.0065 9.10218C35.1205 7.077 35.4158 4.37675 36.3018 2.64691C37.1878 1.63432 38.8755 1.2124 40.0147 2.05623C40.1412 3.19539 39.5928 4.6299 40.31 5.22058L42.293 4.79867Z" fill="#231F20"/>
<path d="M20.3536 18.4265C20.7755 19.1437 21.4927 19.439 21.6615 20.2829C21.6615 21.0001 20.9443 22.0127 20.1004 22.0127C18.6659 22.0127 18.5394 20.2829 17.358 19.861C15.5016 19.2703 12.7591 19.861 12.3372 17.4139C12.4638 16.5278 13.2232 16.4013 13.8983 15.9794C16.472 16.2747 18.0331 17.7092 20.3536 18.4265Z" fill="#231F20"/>
<path d="M17.611 22.0128C17.7376 23.8692 15.5858 25.599 17.4845 27.2023C18.4971 27.793 20.3535 27.3289 20.3535 28.9321C20.3535 30.0713 19.5097 30.7886 18.7924 31.5058C19.9316 32.0965 21.2395 32.5184 21.9568 33.2357C22.0833 35.2608 21.8302 36.8219 20.2269 37.7079C21.3661 39.9863 23.3913 40.7035 25.543 40.9989C26.9775 42.8553 24.9523 44.4586 25.4165 46.315C24.8258 48.0448 24.5726 49.4793 22.9693 50.4919C21.6614 50.6185 20.2269 50.6185 19.9316 49.184C20.3535 47.6229 21.2395 46.315 22.0833 44.8805C20.7754 44.0366 18.2017 44.4586 17.9064 42.0115C17.4845 40.4504 18.6236 39.4378 19.0456 38.1299C16.3031 37.4126 13.3075 39.8597 11.7464 37.1173C11.3245 35.3874 13.0544 35.2608 14.0248 34.6702C16.05 35.6828 15.8812 33.1091 17.3157 32.5184C15.8812 31.6324 14.1514 31.6324 12.2949 31.9277C11.2824 31.5058 11.4511 30.0713 11.4511 29.3541C12.1683 28.2149 13.4763 28.6368 14.4889 28.2149C15.628 25.6412 11.7465 25.2193 13.3497 22.1815C14.4467 21.4221 17.1891 19.9876 17.611 22.0128Z" fill="#231F20"/>
<path d="M50.9 49.5637C50.9 50.4497 50.0562 50.9982 49.5921 51.1247C48.2842 51.4201 48.2842 49.9856 47.8623 49.2683C47.4404 48.2557 47.9888 47.1166 49.1702 46.9478C50.7735 46.8634 50.3515 48.8464 50.9 49.5637Z" fill="#231F20"/>
<path d="M34.5298 57.0316C32.6734 56.4409 34.4032 54.1626 34.8251 52.8546L34.5298 57.0316Z" fill="white"/>
<path d="M117.52 193.141L117.225 193.014C116.212 194.449 115.664 195.166 114.061 195.757C112.499 196.347 112.921 194.322 113.048 193.478C114.229 192.255 117.394 190.82 117.52 193.141Z" fill="#231F20"/>
<path d="M46.0481 5.22055C45.0355 7.07697 44.1917 9.22873 43.7276 11.3805C45.8794 12.6884 46.8919 10.0726 48.0311 9.10215L48.7484 5.81123C48.3265 4.62987 47.0185 5.34712 46.0481 5.22055Z" fill="#231F20"/>
<path d="M236.373 783.862C235.951 785.423 234.939 787.322 235.782 789.009C234.475 792.174 232.07 794.747 232.618 798.924C233.209 801.793 228.146 802.089 230.593 804.958C231.606 808.248 225.277 808.67 228.568 811.582C229.158 814.029 224.981 814.746 226.289 817.024C227.724 818.881 224.855 818.037 224.981 819.598L224.096 824.745C223.505 823.311 222.661 822.72 223.083 821.032C221.522 819.725 221.775 817.32 221.522 815.716C219.244 815.126 220.087 812.847 220.087 810.991C220.509 810.4 220.509 809.683 220.509 808.966C218.779 808.08 218.779 805.928 217.049 805.379C216.923 803.945 217.471 801.624 215.742 800.781C215.615 799.051 216.164 796.182 214.602 795.338C213.59 794.03 213.885 791.456 211.565 791.625C210.847 789.895 211.269 788.461 211.565 786.9C209.708 784.157 211.987 781.035 208.991 778.419C209.582 775.972 206.122 776.267 207.261 773.694C206.249 771.964 207.556 768.673 204.983 767.787C204.983 765.045 202.114 764.201 202.831 761.458C200.553 759.728 202.409 757.45 200.975 755.13C196.966 752.134 201.101 746.227 196.545 743.485C196.418 742.641 197.262 740.616 195.954 740.025H195.11L194.983 739.013H194.857C195.574 736.987 193.844 735.004 193.296 732.684C194.308 730.954 191.988 728.802 192.283 726.355C189.71 724.499 193 721.039 189.541 719.731L188.95 718.887C189.794 718.17 188.824 717.031 188.359 716.018C187.769 713.74 187.937 710.997 186.208 709.268C186.208 707.707 184.182 707.411 184.478 705.386C183.17 704.542 183.887 702.222 183.887 700.787C184.604 700.661 184.182 699.943 184.309 699.479C183.17 699.057 182.875 697.749 181.862 697.032C182.706 695.302 181.735 693.572 180.849 692.138C176.968 691.252 180.976 687.117 177.98 685.092C177.854 682.814 175.955 681.084 176.672 678.637C175.533 677.498 174.099 675.894 174.943 673.911C174.099 672.899 172.917 671.886 173.508 670.452C172.495 669.566 171.947 668.89 171.947 667.583C172.538 666.443 172.538 664.84 171.652 663.574C168.783 662.984 171.652 659.988 169.205 658.849C168.614 656.571 167.643 653.828 167.897 651.55C165.745 650.411 168.023 649.229 168.023 647.837C169.162 644.251 170.766 640.664 170.597 636.614C171.314 634.758 171.188 632.901 172.453 631.467C172.875 629.315 170.723 626.446 173.171 624.716C171.609 619.991 176.461 617.67 174.732 612.945C174.605 611.51 173.888 609.232 175.322 608.346C173.761 604.169 177.052 601.469 176.039 597.292C174.605 596.87 175.196 595.14 175.618 594.001C175.913 591.258 177.179 588.685 175.913 585.816C175.618 583.959 177.221 581.808 175.913 579.909C177.643 577.757 174.774 575.31 176.208 573.158C176.799 571.007 176.082 569.446 175.618 567.294C175.913 566.577 176.208 565.269 175.618 564.425C173.888 562.695 176.926 560.248 175.322 557.843L174.732 556.957C174.605 553.371 175.575 548.94 173.888 545.776C175.196 545.354 174.605 543.624 175.027 542.316C173.592 541.895 174.436 540.46 174.9 539.574C175.322 534.975 173.888 531.515 175.027 527.507C172.749 523.921 176.588 519.618 174.31 516.031C175.871 512.572 175.871 508.437 174.732 504.808C174.858 502.657 175.575 500.8 175.322 498.353C175.618 498.775 176.63 498.648 176.166 499.661C175.575 499.788 175.322 500.674 175.744 501.222C179.921 501.222 176.883 506.116 179.626 507.255C179.752 508.268 179.921 509.281 180.512 509.998C182.242 510.589 183.086 511.854 183.086 513.711C184.647 516.453 184.942 519.027 185.954 522.022C189.541 523.457 187.811 528.478 191.271 530.208C191.566 531.515 192.41 532.528 192.579 533.667C196.291 534.975 192.874 540.123 196.755 540.966C197.051 543.413 199.624 544.426 199.203 547.126C201.481 547.97 201.65 550.586 202.367 552.864C203.253 553.582 204.223 553.877 204.687 555.016L204.983 556.029C203.675 559.741 208.864 559.91 208.442 563.201C209.286 565.48 211.607 565.479 211.607 568.095C213.759 570.669 214.349 574.255 217.218 576.407C216.206 579.698 220.678 580.837 220.214 583.58C220.509 586.322 223.505 586.617 223.674 589.318C224.982 591.765 227.851 591.469 228.821 593.326L230.973 593.916C229.665 595.351 229.665 597.503 230.255 599.106C231.268 600.245 229.834 601.131 229.538 602.144C228.821 604.717 229.833 607.882 228.399 610.329C229.538 613.071 227.808 616.362 228.821 618.936C228.23 619.822 228.526 621.256 228.694 622.1L230.424 623.661C229.58 625.096 226.121 626.235 225.994 628.682C224.855 630.412 220.678 629.273 221.817 632.564C221.1 634.294 219.665 632.859 219.075 634.42C217.05 636.867 217.64 640.58 214.645 641.719C213.21 642.732 212.915 644.588 213.084 646.318C211.522 648.048 209.793 649.609 210.341 652.056C209.328 653.913 206.46 655.769 208.063 658.089C206.755 660.663 205.784 663.701 205.616 666.865C205.911 668.89 208.063 669.312 208.063 671.295C208.358 673.574 210.51 674.586 212.24 675.599C214.096 678.046 217.387 677.455 220.256 677.455C222.534 675.599 227.302 675.43 227.133 671.295C228.272 669.861 230.298 669.144 229.707 666.992C231.437 664.249 232.576 659.946 235.318 657.963C236.331 656.95 236.036 655.221 236.458 653.786C237.47 652.773 237.723 651.761 239.031 651.212C238.609 653.786 239.031 656.107 238.736 659.102C238.314 660.41 238.736 661.676 239.58 662.562C240.592 662.857 240.719 664.292 241.141 665.009C244.136 665.135 246.288 667.583 249.748 666.865C252.026 668.595 254.051 665.853 256.372 665.979C257.216 664.671 259.367 665.389 259.663 663.532C258.819 660.368 263.84 661.676 262.827 658.343C263.249 657.499 263.966 656.486 263.544 655.474H263.249C263.966 654.166 263.966 652.309 263.966 650.748H264.684C265.274 649.736 263.376 649.018 264.388 647.753C265.274 646.867 266.245 647.879 267.131 648.175C268.987 650.495 270.168 653.491 271.856 655.516C271.265 657.372 273.291 660.41 270.843 661.549C269.282 663.996 272.573 666.443 271.265 668.722C271.983 669.861 270.422 670.283 270.422 671.169C270.843 673.447 269.409 675.472 269.704 677.793C268.565 678.637 267.426 680.071 267.426 681.674C267.553 683.826 268.86 685.978 266.709 687.413C266.582 691.294 264.852 693.741 264.557 697.623C263.84 698.762 262.279 700.661 263.544 702.222C260.085 705.091 262.236 710.407 258.946 713.149C257.511 715.428 260.085 718.887 256.794 720.322C253.334 722.178 257.089 727.621 254.22 730.363C255.95 732.81 251.056 733.106 252.364 735.553C250.507 737.409 251.646 740.152 249.79 741.881C249.917 743.443 249.368 745.046 248.946 746.48C246.077 747.324 247.09 750.784 246.499 753.231C244.769 755.805 246.204 758.378 243.925 760.53C244.516 763.399 242.069 765.846 242.069 768.42C240.508 770.276 241.478 772.597 240.044 774.453C237.09 776.816 239.833 781.288 236.373 783.862ZM166.04 544.721C165.028 545.439 163.466 544.721 163.002 545.734C160.555 546.325 158.404 543.878 156.842 546.451C156.125 546.747 155.281 546.747 154.691 547.168C152.666 548.181 149.079 545.439 148.362 548.898C146.084 549.025 144.354 550.755 142.202 549.32C140.346 549.616 139.164 551.345 137.308 551.05C135.156 552.906 132.414 549.194 130.431 551.641C127.562 552.063 124.102 554.383 121.528 551.936C120.22 552.231 119.377 552.949 118.237 553.075C117.815 551.936 116.212 553.075 115.664 551.936C113.807 552.231 112.204 550.797 110.516 551.809C109.673 551.219 108.365 551.683 107.774 550.797C105.918 552.949 103.766 550.375 101.319 551.388C99.8842 551.092 98.5762 552.527 97.1417 551.514C96.2979 552.653 94.3993 551.388 93.5555 552.527C92.7117 552.231 91.4037 552.653 91.1084 551.514C89.6739 551.936 88.1128 552.231 86.2142 551.809C82.9232 554.552 80.1808 548.941 77.6072 551.936C75.0335 552.063 73.3036 549.911 70.9831 549.362C67.8187 547.801 65.2451 551.092 61.6588 549.953C60.9416 547.379 58.6632 550.67 57.946 548.392C56.8068 548.814 55.3723 548.687 54.4863 547.97C51.3219 544.806 54.0644 540.629 52.7564 536.494C52.3345 535.06 51.6173 533.203 52.3345 531.6C51.7439 527.887 53.6425 523.415 51.4485 520.124C52.1658 517.55 52.7565 513.247 51.0266 510.673C52.3345 507.635 50.6047 504.049 51.1532 501.053C52.1658 498.733 50.5625 496.454 51.8704 494.303C52.2923 492.151 51.8704 489.704 50.8578 487.847C50.9844 483.839 51.2797 478.945 50.014 475.232C51.1532 472.659 51.8704 469.621 52.0392 466.752C51.7439 465.022 52.883 463.461 51.0266 462.28C50.9 459.115 51.3219 456.12 51.3219 452.955C48.4529 451.647 51.0266 448.652 51.1953 446.626C52.3345 443.462 50.0562 440.298 50.9 436.88C49.0436 434.011 52.9252 431.016 50.9 427.683C51.0266 423.379 53.0518 418.78 55.7942 415.616C55.7942 413.759 55.0769 411.903 57.2287 411.017C59.507 408.865 57.524 405.406 60.3931 403.549C60.6884 399.372 61.9542 395.364 64.8654 392.2C64.0215 388.318 67.439 386.757 68.5782 383.424C70.3081 381.989 67.2702 378.403 70.4346 378.403C71.1518 376.125 72.5863 373.973 73.7255 371.779C74.3162 364.016 79.1682 358.278 81.4888 351.105C83.9359 348.068 86.2142 344.945 86.6361 340.768C88.3659 338.912 87.6486 336.76 88.4925 334.44C87.6486 332.71 91.235 331.571 89.927 329.546C90.3489 328.659 91.3615 327.816 91.0661 326.803C90.0536 326.086 89.3363 326.381 88.7878 325.073C87.6487 324.778 87.3533 326.086 87.058 326.803C86.3407 329.799 84.0624 332.119 84.189 335.41C82.6279 337.984 80.6027 341.148 80.4761 344.186C80.1808 347.646 75.0335 348.068 76.0039 352.371C74.6959 355.662 73.1349 358.531 71.2785 361.569C70.6878 363.003 71.8691 363.889 71.5738 365.282C67.6922 367.138 69.422 372.032 66.4264 374.775C63.1355 376.083 66.553 380.935 62.7136 381.103C60.8572 383.677 63.1355 387.854 59.5492 388.993C60.5618 391.271 57.1022 392.579 58.1147 394.858C56.6802 395.87 56.2583 397.6 54.9504 398.866C54.5285 401.735 55.963 405.912 52.0814 406.924C51.0688 409.203 51.3641 411.65 49.5077 413.253C47.4825 417.852 45.4995 421.438 45.4995 426.754C42.6305 429.201 40.4788 432.788 40.0568 436.965C41.4913 438.526 39.213 439.834 38.4958 440.846C35.7533 442.871 37.3566 447.47 35.458 450.044C34.3188 451.9 32.1671 453.208 32.2936 455.782C32.7156 457.512 34.0235 459.959 31.703 461.098C31.8295 461.52 31.4076 462.237 32.1249 462.406C31.1123 464.262 31.2388 466.71 29.8043 468.271C30.5216 470.422 29.3824 472.279 29.509 474.304C28.7918 474.895 27.9479 475.317 27.6526 476.034C28.7918 478.903 25.9227 481.645 26.9353 484.514C27.3572 487.257 24.3617 488.396 24.4883 491.265C26.0493 495.99 25.2055 501.306 23.8976 505.905C25.2055 511.348 23.771 516.833 21.6192 521.685C24.0663 524.554 20.6066 527.001 20.4801 529.87C24.4882 533.33 20.7754 538.055 21.788 542.359C21.4927 546.24 17.7798 550.122 20.902 553.708C20.0582 555.143 18.3283 556.999 19.3409 558.602C21.3661 560.627 18.3283 563.328 19.9316 565.775C19.2143 568.095 19.2143 570.669 17.7798 572.525V578.263C15.3327 583.58 18.6236 590.752 14.1936 595.056C14.4889 598.347 14.7842 599.95 13.181 602.65C12.1684 603.663 10.8605 604.38 9.72129 604.802V603.916C7.56953 603.789 4.70052 603.072 2.97068 604.802C0.818921 604.507 -0.489013 602.65 -2.76735 602.228C-3.77994 605.097 -7.3662 603.241 -9.39138 603.663C-11.4166 603.367 -13.5683 602.355 -15.7201 603.241C-16.4373 602.397 -17.5765 602.102 -18.7157 602.228C-19.3064 602.65 -20.0236 603.072 -20.8674 603.241C-22.0066 601.511 -23.6099 600.372 -25.7616 600.076C-27.3227 601.216 -28.5041 599.655 -29.9386 599.655C-30.5293 598.642 -31.795 597.925 -32.681 597.081C-31.6684 594.043 -34.8328 591.765 -33.2717 589.022C-32.681 586.449 -31.1199 583.706 -31.2465 580.415C-31.6684 577.124 -31.6684 573.369 -31.2465 570.078C-30.9512 568.517 -29.9386 566.197 -31.5418 564.931C-32.2591 562.357 -29.2635 559.91 -31.8372 557.632C-28.7994 553.16 -31.8372 546.704 -28.6728 542.274C-28.9682 539.11 -27.9556 536.536 -28.0821 533.498C-26.5211 531.22 -27.2383 529.026 -28.6728 526.874C-28.6728 525.018 -26.3945 523.879 -26.943 521.558L-26.3523 518.099H-26.2258C-25.8038 514.808 -28.7994 510.8 -25.5085 507.888C-25.8038 506.158 -26.6476 503.88 -25.2131 502.446C-24.074 499.872 -26.943 497.256 -23.7786 495.695C-21.6269 490.548 -25.9304 484.936 -22.0488 480.886C-21.9222 478.143 -24.6225 476.16 -22.8926 473.418C-19.6017 470.549 -23.0192 465.402 -20.1502 462.659C-19.3064 460.634 -21.7113 458.482 -19.7283 456.626C-17.9984 454.347 -18.7157 450.761 -17.4499 448.145C-16.6061 445.276 -17.1546 442.281 -16.7327 439.538C-15.4248 438.948 -14.2856 437.387 -14.2856 435.657C-14.159 433.632 -11.7119 432.197 -12.5557 429.919C-13.8637 425.32 -8.67416 422.451 -10.2774 417.852L-10.8681 417.008C-9.13826 416.882 -9.8555 415.152 -8.84291 413.97C-8.84291 412.536 -8.25223 410.806 -8.84291 409.54H-8.25223L-8.12566 410.131C-7.53498 410.426 -7.23966 409.709 -6.81774 409.414C-6.81774 408.823 -7.23965 408.401 -7.11308 407.684C-6.5224 407.093 -5.55199 406.967 -5.55199 406.123C-6.39582 405.11 -5.9739 404.098 -5.67856 402.832C-4.24405 402.537 -4.66596 400.975 -3.82213 400.089C-2.68296 398.655 -3.82214 396.799 -2.80955 395.195C-3.10488 394.605 -3.65337 393.761 -2.93611 393.17C-1.92352 392.453 -1.07972 392.031 -0.489041 390.723C-1.62821 389.415 -0.78435 387.559 -0.193671 386.293C1.24083 385.28 1.66273 383.424 1.36739 381.821C3.09723 380.26 3.51915 378.53 4.40517 376.673C4.53174 374.226 4.2786 370.64 7.14761 369.627V369.037C8.1602 368.319 7.27418 367.011 7.27418 365.872C5.7131 363.299 9.42594 363.003 9.55252 360.556C12.295 359.965 9.55252 355.24 12.4215 353.806C13.2654 352.076 13.4341 350.05 14.9952 348.911C14.9952 348.067 15.1218 347.181 14.2779 346.886C16.1343 345.325 16.1344 342.161 18.2861 340.431C17.4001 340.009 17.6955 338.87 17.8642 338.153C20.3113 338.026 17.9908 335.705 19.4253 334.693C19.0034 333.976 20.016 333.554 20.4379 333.132C19.2987 330.263 24.1507 330.136 22.7162 326.803C23.3069 325.79 25.5852 325.242 24.9945 323.343C24.6992 322.5 25.2899 321.782 26.0071 321.065C25.5852 319.631 25.8806 317.479 27.0197 316.171L27.737 312.163C28.5808 310.602 32.3358 310.011 31.1967 307.268C32.7577 305.539 32.2093 302.67 34.2344 301.235C34.2344 299.927 34.361 298.071 35.3736 296.932C36.6815 296.636 37.5254 295.202 38.2426 294.063C38.5379 288.746 43.5587 285.034 45.2886 280.266C46.5965 275.245 51.4485 271.49 53.6003 267.06C54.9082 267.355 55.8786 265.921 56.3427 265.33C58.4944 263.769 60.0555 260.605 61.7854 258.158C61.9119 256.597 64.2325 256.597 65.2451 255.584C67.5234 253.728 69.9705 252.715 72.7129 252.124C74.1475 250.268 76.8899 250.395 78.1556 248.665C81.6153 248.538 84.6109 246.513 88.0706 247.23C88.4925 247.821 88.7878 248.369 89.6317 248.369C91.6568 247.652 93.6399 249.213 95.665 247.652C97.2261 249.93 100.686 248.665 102.964 249.804C103.681 249.677 104.694 250.099 105.242 249.382C107.69 250.099 109.546 248.791 111.698 249.973C113.428 249.129 115.579 249.551 117.562 249.551C119.841 248.538 121.275 246.808 124.186 246.513C125.03 245.078 126.465 246.935 127.773 246.808C128.785 248.116 130.515 248.116 131.95 248.665C133.384 249.087 134.523 250.099 136.253 249.973C138.7 251.281 140.261 254.572 143.299 254.698C145.451 258.284 149.164 260.858 150.176 265.035C150.894 265.33 151.189 265.921 151.611 266.469C151.484 267.355 152.033 268.031 152.75 268.326C153.636 269.043 153.889 270.056 155.197 270.604C155.07 271.448 155.619 272.629 154.606 273.178C157.18 275.034 156.758 278.916 158.91 281.068C157.053 283.641 161.357 285.962 158.91 288.114C159.036 288.704 159.332 289.675 160.218 289L160.64 289.843L160.344 290.265C161.23 291.573 161.905 294.02 162.37 295.413C162.791 296.552 162.37 298.282 163.382 299.126C163.087 300.687 164.226 300.982 163.804 302.712L164.226 302.838C162.918 305.117 164.648 307.733 164.099 309.42L163.382 310.011L164.226 310.138C163.931 311.699 165.66 312.163 164.817 313.724C166.251 314.863 165.66 315.749 166.546 317.015C166.42 318.449 166.251 319.757 165.829 321.192C165.703 322.753 166.968 323.934 166.42 325.495C167.264 325.917 166.715 327.647 168.15 327.647C168.15 329.925 168.023 332.246 168.276 334.271C168.994 334.566 169.711 335.705 168.994 336.296H168.867C168.74 337.731 169.711 339.756 168.572 341.022C168.572 342.034 167.854 343.342 169.289 343.764L169.415 343.637C169.289 344.945 169.289 346.675 168.825 348.11C169.247 349.122 169.837 350.557 169.669 351.569C170.259 351.274 170.512 352.16 170.681 352.582C168.951 353.299 168.951 355.156 169.247 356.59C170.386 359.755 168.529 362.624 169.964 365.788C169.669 366.379 169.247 367.349 169.964 367.813C170.977 368.404 169.542 368.952 169.837 369.669C171.399 371.526 168.529 373.256 170.555 374.986C171.145 378.698 167.686 381.736 169.837 385.196C170.977 386.335 171.272 388.191 170.133 389.626C168.994 391.187 168.403 393.212 169.711 394.816C170.133 396.25 170.428 398.106 171.863 399.119C171.863 399.541 171.736 400.132 171.145 400.132C170.85 401.566 172.158 402.579 170.555 403.296C170.133 405.617 171.441 406.756 169.964 408.486C169.247 409.203 168.951 410.511 169.669 411.355C169.795 412.662 170.512 413.928 170.259 415.531C169.964 417.388 170.133 418.696 170.681 420.13C171.103 421.691 169.542 423.421 170.681 425.025C172.242 428.062 167.812 428.906 169.12 431.649C169.837 434.222 171.989 436.965 170.681 439.707C167.812 442.45 170.977 446.036 169.247 449.327C169.669 451.605 170.386 453.799 170.977 455.951C170.259 457.259 169.416 459.537 170.555 460.972C171.272 463.25 168.994 465.148 170.259 467.427C169.247 470.591 171.103 474.599 168.825 477.342C169.247 479.367 169.247 481.35 168.825 483.375C169.247 485.232 171.567 488.269 168.825 489.535C168.403 490.548 169.837 490.97 170.133 491.687C171.272 494.26 167.095 495.864 169.12 498.311C169.415 500.167 169.247 501.771 170.259 503.205C170.386 504.513 169.542 504.766 169.12 505.948C169.415 508.69 173.002 510.378 170.555 513.12C168.825 515.145 170.259 518.267 169.12 520.588C167.686 523.626 169.416 526.748 170.555 529.068C170.555 531.22 170.555 532.359 169.711 533.963C169.204 537.802 171.23 542.992 166.04 544.721ZM79.337 74.4144C77.1852 74.541 77.3118 77.1569 75.0335 76.8616C74.0209 79.7306 70.4346 78.2961 69.2955 80.5744C66.8484 80.5744 66.8484 83.8653 64.1481 83.7387C60.9838 84.0341 59.9712 88.0423 56.3849 87.4516C55.963 88.1688 55.2457 88.7595 54.6551 89.308C53.9378 89.1814 52.9252 88.5908 52.0814 89.0127C51.0688 90.4472 49.9296 92.0504 47.9044 91.5863C47.0606 93.6115 44.3182 93.0208 44.0228 95.1726C41.5757 94.7507 39.7193 97.6197 37.2722 96.6071C34.4032 99.1808 32.378 95.7633 29.9309 94.8773C29.0871 93.4428 27.0619 93.0208 26.7666 90.9956C25.4587 90.405 25.6274 89.2658 25.6274 88.1266C22.885 86.3968 24.0663 83.6543 23.3491 80.6588C25.3743 78.8023 29.2137 81.376 30.5216 77.621C32.378 77.1991 33.264 75.3427 35.4158 76.0599C37.2722 71.6298 43.3056 74.3301 44.4447 70.0266C46.5965 69.6047 50.4781 70.6172 51.0688 67.4529C55.077 67.8748 57.3975 64.5839 60.3931 62.3055C63.1355 63.4447 63.4308 59.5631 66.4264 60.5757C66.7218 60.2804 67.0171 59.985 67.5656 59.985C69.5908 58.1286 70.5611 55.2596 73.7255 55.3862C75.16 52.9391 77.9025 53.9517 79.5902 52.2218C83.0498 53.361 83.4717 48.3402 87.058 49.2262C87.4799 46.6526 90.5177 47.7917 91.9522 46.1884C93.2601 46.9057 94.8212 46.9057 95.8338 45.8931C96.973 45.0493 97.3949 42.8975 99.5466 43.1507C101.276 42.8553 101.698 40.4082 103.555 40.8723C104.694 41.463 105.875 40.577 106.593 40.0285C107.31 39.3113 107.183 38.1721 108.154 37.5814C111.318 37.8767 113.765 37.5814 116.043 35.8516C117.056 34.4171 118.195 33.5732 120.052 32.9826C122.921 34.1217 123.933 30.5355 126.802 30.7042C127.815 29.6916 128.11 32.2653 129.376 32.0122C130.515 34.0373 132.54 34.7546 132.667 37.2017C132.793 39.0581 135.241 38.6362 134.819 40.788C135.662 41.674 135.536 42.8131 135.536 43.9523C134.523 44.6696 133.975 45.3868 133.511 46.526C130.768 47.5386 129.038 50.4076 125.916 49.9857C124.482 50.5763 124.06 53.15 122.33 52.264C121.022 53.2766 119.756 53.8251 118.153 54.4158C115.115 54.5423 114.989 58.002 112.246 58.2974C108.533 57.7067 106.213 59.7319 103.935 62.0102C102.627 61.5883 101.783 62.7274 100.475 62.4321C99.4623 66.0184 95.3275 63.2759 93.8508 66.0184L92.1209 68.1701C89.9692 67.2841 89.1254 69.6046 87.1002 69.7312C85.3704 72.6846 81.0668 71.672 79.337 74.4144ZM174.943 326.044C175.238 329.63 175.238 333.511 178.402 335.663C178.824 338.11 176.25 342.119 179.837 342.962C182.875 345.241 179.837 348.7 181.862 351.443C182.706 352.877 185.87 354.734 184.436 357.054C184.014 359.628 187.305 360.767 186.587 363.088C187.431 365.957 189.878 368.235 189.161 371.399C189.456 374.69 192.874 376.842 191.903 380.302C193.929 381.61 192.03 385.027 193.338 386.884C194.772 388.318 194.772 389.331 194.055 391.187C193.043 395.617 198.359 396.799 198.654 401.397C199.076 404.857 198.654 409.583 201.945 411.439C201.945 413.464 201.818 416.038 201.65 417.894C204.519 420.046 205.109 423.042 205.109 426.67C205.236 427.978 205.827 428.948 206.966 429.539C207.388 431.395 205.658 434.686 208.527 434.982C208.527 438.019 208.653 441.606 211.522 443.293C210.51 446.584 212.408 449.622 214.56 451.774C214.982 453.799 214.56 456.921 217.134 457.934C217.725 459.959 216.248 461.942 218.273 463.376C218.147 464.811 219.286 465.233 219.286 466.541C221.859 468.397 218.864 471.857 222.45 473.291C225.741 474.726 223.294 478.903 225.446 480.591C226.458 483.881 230.593 484.767 230.171 488.776C234.77 491.645 232.027 498.986 237.217 500.969C236.626 502.108 236.795 503.711 237.09 504.851C237.681 505.737 238.651 505.99 239.537 506.58C238.947 509.871 240.677 513.204 243.546 514.765C243.968 517.93 246.71 518.774 246.837 521.938C248.566 523.963 249.41 526.663 249.41 529.237C252.575 530.798 251.562 534.975 254.304 537C254.304 538.013 253.714 538.857 255.191 539.447C256.92 539.447 256.625 541.177 257.216 542.316C257.933 545.607 261.688 547.337 261.393 550.797C261.519 552.527 264.135 551.219 263.84 553.244C263.966 554.257 263.418 555.522 264.262 556.113C267.004 556.408 265.57 559.995 267.426 561.134C269.156 561.851 268.143 564.003 268.987 565.311C268.565 566.745 267.553 567.884 267.679 569.488C264.81 571.218 261.815 573.791 258.903 574.677C257.595 575.394 257.595 577.251 256.034 577.251C255.317 578.264 252.743 577.251 251.731 578.137C249.157 581.428 245.993 582.567 241.689 582.567C239.411 584.002 238.398 588.432 234.643 586.027C233.504 587.461 232.07 587.883 230.171 587.461C229.749 587.039 229.749 586.322 229.158 586.322C229.158 583.58 225.446 584.044 225.446 581.597C223.167 579.867 225.572 575.268 221.564 574.973C219.708 572.947 220.003 569.656 217.387 567.927C218.104 564.636 214.096 564.34 214.223 561.303C213.084 559.868 209.919 559.995 210.341 557.294C208.78 555.438 210.636 551.683 208.063 550.417C207.641 548.856 206.206 548.561 205.489 547.126C204.898 543.962 203.337 540.249 199.878 539.363C199.287 538.224 201.608 536.199 199.287 535.481C198.696 534.764 198.865 533.456 199.16 532.317C198.57 531.009 196.418 530.883 196.123 529.153C196.84 526.284 193.254 525.44 192.536 523.119C191.397 522.276 190.806 521.094 190.68 519.66C191.271 517.93 190.258 516.917 190.385 514.765C189.667 513.753 187.516 513.331 188.655 511.306C188.655 508.563 184.773 508.31 184.942 505.146C185.237 500.842 180.638 500.125 180.216 495.695C178.487 494.261 178.191 491.518 178.655 489.535C176.208 487.257 176.208 485.105 175.364 481.772C174.943 480.886 174.225 480.211 174.478 479.029C175.913 477.89 174.057 476.582 174.352 475.021C176.504 472.279 175.196 468.566 175.491 464.811C174.352 464.22 175.618 463.376 175.196 462.533C173.339 458.82 177.474 454.348 174.352 450.761C173.213 448.905 175.069 447.175 174.647 445.445L175.069 445.319C173.93 443.884 175.786 442.028 174.647 440.298C175.533 437.555 174.225 434.982 175.533 432.535C175.407 430.256 174.394 427.936 175.111 425.784C174.099 424.898 174.521 423.337 174.689 422.324C176.968 420.468 174.689 417.177 176.25 414.856C176.968 413.295 174.099 412.831 175.238 411.144C177.263 407.262 174.816 402.537 176.082 398.528C174.943 398.233 174.774 397.389 174.521 396.377C174.647 395.364 175.66 393.929 174.521 393.086C174.816 391.06 175.533 387.348 174.521 385.196C176.377 382.749 172.96 380.47 175.533 378.319C175.829 375.45 175.829 372.581 174.521 370.007C175.407 368.868 174.943 366.969 175.111 365.703C172.833 364.86 175.407 362.666 174.521 360.978C172.96 358.404 175.238 354.649 175.111 351.654C176.124 349.207 172.369 349.629 173.255 347.224C173.677 345.199 174.563 343.511 172.96 341.612C173.677 337.604 171.947 334.144 172.538 330.432C169.669 327.858 174.816 325.115 171.103 322.837C169.795 320.981 171.398 318.534 170.386 316.508C174.225 318.449 172.2 323.47 174.943 326.044ZM392.861 1037.69C392.439 1034.52 390.583 1032.37 389.865 1029.37C387.713 1028.23 387.123 1025.49 386.279 1023.51C382.397 1023.64 382.271 1017.9 378.389 1018.32C376.659 1016.17 373.79 1016.17 371.343 1015.03C368.052 1016.17 363.749 1013 361.006 1015.15C359.15 1015.15 357.547 1014.56 356.112 1014.31C355.1 1015.62 352.948 1015.03 351.935 1016.17C349.362 1016.29 347.336 1018.19 344.763 1018.49C342.906 1019.8 340.164 1019.92 338.729 1021.65C335.987 1020.34 334.004 1022.37 331.683 1022.96C327.675 1023.68 325.65 1026.67 321.346 1025.7C319.026 1028.15 315.735 1025.7 313.035 1025.7C310.588 1023.97 307.423 1026.42 304.554 1024.86C300.968 1025.28 298.394 1020.85 294.935 1022.71C294.513 1022.41 293.5 1022.29 293.796 1021.4H293.374C292.361 1020.68 291.222 1018.83 289.914 1018.66C287.889 1016.21 289.787 1011.61 286.328 1009.88C286.454 1007.6 285.02 1006.72 283.585 1005.45C284.007 1003 282.868 1000.73 281.307 999.291C282.615 993.131 277.13 989.545 277.425 983.807C273.122 981.782 276.413 976.339 272.531 974.314C273.375 973.174 272.826 971.445 273.122 970.137C269.662 968.407 270.379 964.23 269.114 961.53C268.101 960.39 267.806 958.07 268.228 956.804C268.354 953.513 265.232 951.615 265.654 948.197C263.207 945.75 263.924 941.742 261.055 940.012C261.477 938.873 261.646 937.016 261.35 935.835C260.928 934.401 259.199 933.979 259.494 932.249C259.916 930.224 260.085 928.367 259.072 926.342C256.625 923.768 254.6 920.182 255.486 916.005C254.051 913.432 251.604 911.406 251.9 907.989C249.452 906.259 249.452 903.812 248.609 901.534C248.482 897.652 245.74 894.783 245.022 891.07C242.449 890.944 244.6 887.61 242.997 886.471C241.141 885.881 242.997 883.012 240.719 882.758C240.002 880.733 239.158 878.877 238.694 876.725C239.411 875.881 238.567 874.7 238.82 873.856C238.398 872.97 238.23 872.717 237.386 872.126C238.398 868.667 238.23 865.966 239.537 862.507C239.833 860.777 242.111 859.469 240.128 857.781C241.436 855.207 244.136 852.338 242.575 849.005C244.305 843.563 247.723 839.09 248.609 833.226C247.469 832.213 249.326 830.652 248.482 830.061C249.495 829.64 249.495 828.332 250.338 827.614C249.748 826.771 250.338 826.053 249.452 825.336C250.465 822.889 252.49 821.75 252.743 819.303C252.743 816.856 255.022 814.577 253.883 812.552C255.022 810.105 258.059 807.827 257.342 804.789C255.317 800.359 261.815 798.755 259.916 794.747C262.785 791.456 262.785 787.279 263.924 783.102C265.063 782.259 265.232 780.529 265.654 779.094C263.924 775.635 269.114 775.381 267.679 771.5C269.114 769.77 269.831 767.323 269.831 764.749C272.7 763.737 270.253 759.728 272.573 758.294C271.561 755.551 274.303 754.117 274.303 751.839C272.025 749.56 275.611 748.379 275.316 746.101C278.185 744.371 276.328 741.375 277.594 739.223C278.902 737.916 278.607 736.059 279.155 734.203C279.746 731.756 281.729 729.604 281.012 727.157C282.32 725.722 282.024 723.866 281.898 722.136C286.075 719.394 283.459 712.685 286.918 709.225C287.509 706.778 287.045 704.627 288.058 702.475C290.209 699.606 291.095 696.02 290.631 692.011C292.656 691.421 292.488 689.142 293.205 687.581L292.192 687.286C293.922 685.851 292.192 683.573 294.217 682.096C294.091 679.227 297.677 679.945 299.365 678.637C300.799 679.059 301.643 678.341 301.939 676.907C302.951 676.612 303.964 676.19 305.103 676.611C308.984 676.021 310.25 671.886 311.98 668.848C314.427 668.004 312.824 665.262 313.288 663.11C313.415 662.815 314.301 662.224 313.583 661.802C314.005 661.085 313.457 659.777 314.427 659.524V658.511C315.735 657.203 313.836 655.642 314.005 654.334C312.993 652.478 314.596 650.622 314.596 648.428C313.161 647.71 314.469 645.263 313.288 644.715C312.993 643.576 312.993 642.858 313.71 641.846C314.301 640.58 313.415 639.568 312.824 638.682C312.95 636.108 312.528 632.226 311.98 629.357C309.702 628.049 311.98 625.644 311.136 623.493C310.419 623.619 309.828 623.493 309.406 622.902C309.111 622.311 308.984 621.467 309.533 621.172C308.52 618.43 308.098 615.729 306.242 613.578C305.82 611.848 304.512 610.287 303.795 608.683C301.939 605.224 298.479 602.524 296.918 598.347C293.753 597.461 293.627 593.874 291.475 592.44C290.462 591.427 288.606 591.301 288.901 589.444C288.775 586.997 285.737 587.883 284.598 586.702C282.741 586.111 284.176 583.411 282.024 583.242C280.294 581.808 277.721 580.373 276.286 578.517C275.274 576.66 273.122 575.774 271.983 573.791C272.573 572.23 272.7 570.627 274.134 569.91C275.147 567.884 274.43 565.901 273.544 563.876C273.67 561.598 270.801 560.417 270.801 558.434C270.506 555.86 268.059 553.413 267.342 550.67C266.92 549.236 266.202 548.519 264.768 548.097C263.755 546.789 263.207 545.101 263.207 543.667C261.35 540.924 260.928 537.507 257.595 535.06C257.005 533.33 256.456 531.473 256.034 529.617C254.009 528.478 254.304 526.157 252.997 524.301C253.714 521.854 250.423 521.305 250.128 519.575C250.001 518.014 248.988 516.411 248.988 514.976C248.862 513.964 247.976 514.259 247.259 513.964C247.132 513.12 246.541 512.403 245.697 511.939C245.824 508.648 243.419 506.074 243.841 503.163C244.136 501.138 242.111 501.306 240.972 500.294C241.099 498.016 238.23 496.834 238.82 494.26C236.078 491.096 237.386 485.78 233.082 483.797C231.943 480.084 229.201 477.342 227.049 473.882C228.357 470.591 225.024 468.693 223.589 467.005C225.319 462.406 219.876 460.972 221.015 456.668C218.442 453.377 219.286 447.766 216.29 444.897C214.856 444.77 215.573 443.04 214.729 442.323C214.138 439.285 214.138 436.163 212.282 433.421H211.987C211.86 431.564 211.987 429.117 210.552 427.514C211.396 425.784 208.991 424.518 210.257 423.084C210.13 421.945 208.822 422.071 208.527 421.354C209.118 418.907 205.953 418.063 206.797 416.207C206.797 415.489 207.219 414.181 206.375 413.759C206.502 411.481 204.645 409.878 204.814 407.599C202.662 404.435 204.519 400.3 201.776 397.389C198.907 395.659 200.637 392.073 199.625 389.626C197.768 388.909 199.034 386.04 198.612 384.479C195.321 382.749 197.768 379.036 195.321 376.715C195.026 373.846 193.886 371.568 194.013 368.235C190.849 365.957 192.874 361.062 189.119 359.333C188.106 357.476 189.836 355.324 188.697 353.595C185.954 352.455 187.98 349.122 185.701 347.561C184.984 346.549 185.701 345.409 185.701 344.27C184.267 341.233 182.959 337.815 182.832 334.06C180.681 332.752 180.554 330.474 180.259 327.9C176.672 327.183 179.837 323.301 177.685 321.149C177.685 317.268 173.803 314.821 173.803 310.813C171.061 308.239 171.525 304.062 170.766 300.349C169.626 299.463 168.192 298.197 168.487 296.468C166.926 293.599 166.926 289.843 164.774 287.565C164.901 282.84 160.471 279.38 159.88 274.486C158.319 272.039 159.036 268.326 157.307 265.879C156.167 265.035 154.733 263.432 153.425 262.588C152.581 259.423 150.556 256.85 148.826 253.981C148.235 252.546 147.096 253.137 145.957 252.842C145.831 250.985 143.383 250.816 143.383 248.833C140.641 249.551 141.949 245.964 139.924 245.838C137.477 247.399 136.464 243.56 134.017 244.825C132.161 240.817 127.984 242.674 124.693 240.944V235.796C124.102 235.206 123.975 234.488 124.102 233.645C124.946 229.636 124.819 226.177 124.693 221.873C122.836 219.426 126.549 219.848 126.844 218.16L127.688 218.287C128.827 217.992 129.545 217.696 129.84 216.431C130.262 215.713 131.148 214.869 132.287 215.123C132.878 214.701 132.878 214.532 133.3 213.983C132.709 210.524 136.464 209.385 135.578 205.798C138.742 204.364 135.578 199.934 139.038 198.626C139.164 197.487 138.616 196.769 138.742 195.757C140.05 193.183 140.177 190.145 140.599 187.276C141.189 186.559 142.16 186.137 141.738 184.829C139.713 182.551 143.468 181.665 142.455 179.091C142.329 175.927 144.902 174.07 143.89 170.906L144.902 170.02C146.463 169.007 145.324 167.024 145.324 165.295C146.21 164.999 145.451 163.86 146.463 163.565L146.59 163.987C147.307 164.282 147.729 164.282 148.446 163.987C149.586 161.54 151.737 164.409 153.594 162.679C155.028 160.527 155.45 158.375 157.18 156.223C155.324 154.367 157.897 152.764 157.602 150.612C155.155 149.178 157.729 147.026 157.18 144.874C160.049 142.3 156.589 138.123 159.922 135.55C160.513 133.82 161.23 132.385 162.074 131.077C164.353 130.487 165.956 128.335 166.378 126.057C165.956 123.778 167.686 122.597 166.8 120.192C164.648 119.053 167.812 116.184 164.521 116.184C162.37 116.479 162.791 113.906 160.808 114.032C159.965 114.159 158.952 114.623 158.235 115.045L157.939 114.327C158.825 112.471 159.5 110.741 160.682 109.18C161.694 106.016 163.256 110.066 164.985 109.771C166.546 111.627 168.445 108.336 169.88 110.615C171.188 111.037 172.453 110.615 173.466 109.771C176.04 111.079 177.643 107.492 180.512 108.927C182.242 108.632 182.242 107.071 183.254 106.185C185.701 106.606 185.997 103.737 187.262 102.472C188.275 102.767 188.823 102.176 189.583 101.459C189.288 98.1682 193.169 98.4213 193.465 95.2992C193.169 94.8773 192.747 95.0038 192.452 94.4553C191.861 94.5819 191.017 94.16 190.722 95.046C189.161 94.3288 188.866 96.354 187.431 95.3414C188.444 94.6241 188.866 92.7677 190.174 91.8817C190.764 91.5863 191.482 92.0082 191.735 91.1644C191.313 88.422 195.194 88.1266 194.477 85.1311C190.891 85.2576 187.853 87.7047 184.014 86.9875L184.14 86.1437C186.419 85.553 187.727 84.2872 189.288 82.684C188.866 81.1229 190.722 80.6588 191.439 79.6884C191.017 76.9459 194.013 76.2287 193.465 73.2331C192.325 71.9252 191.904 74.2457 190.722 74.541C188.697 74.8364 187.431 76.6928 185.575 76.1021L186.165 75.2161C188.191 74.0769 189.33 72.0517 191.482 70.9126C191.186 69.6046 191.482 67.4529 193.338 67.031C193.211 66.3137 194.351 65.5965 193.465 64.8792C190.469 64.162 188.57 66.9044 185.701 65.8918L186.419 64.0354C186.841 62.0102 188.992 62.7275 190.005 61.5883C190.427 59.0146 192.579 56.8629 192.283 54.1204C190.849 54.247 189.836 54.8377 188.697 55.133C186.672 53.5719 185.111 57.4113 183.676 54.8377C182.664 54.8377 181.651 54.9643 180.934 55.5549C179.921 55.4284 179.373 54.8377 178.782 54.1204C177.769 53.4032 177.221 53.9939 176.039 54.1204C175.744 53.8251 175.449 53.8251 175.322 53.2766C174.183 52.1374 172.285 53.2766 171.019 53.6985C169.458 53.1078 169.289 51.1248 167.137 51.5468C165.407 48.0871 160.513 50.8295 158.53 47.3698C155.07 48.2558 151.484 46.0619 148.193 47.9605C146.759 45.9353 145.451 48.0871 143.89 48.0871C142.582 46.7791 141.021 47.9605 139.713 47.0745C140.725 43.1929 138.827 40.1973 137.561 36.8642C134.987 36.7376 136.548 33.6998 134.987 32.4341C132.414 30.9996 131.823 28.004 129.84 26.1054C128.701 26.1054 127.266 25.3881 126.127 26.1054C124.819 29.101 122.836 26.1054 120.389 26.696C118.364 23.4051 114.229 25.135 111.191 24.6709C109.757 24.2489 108.196 21.6331 106.297 23.2364C104.019 23.6583 102.584 21.3799 100.264 21.9284C98.7028 20.4939 96.8042 22.055 95.0744 22.055C93.0492 20.0298 90.6021 21.4643 88.3237 21.9284C87.3111 19.7767 84.6109 21.8019 83.303 20.1986L74.6959 20.3251C72.9661 21.5909 70.519 22.1816 68.0719 21.8862C66.0467 24.038 64.3591 20.5783 62.3339 22.7723C61.3213 21.3377 59.5914 22.7722 58.3257 22.1816C58.9164 19.9032 55.1614 19.3126 56.3005 16.5701C55.7098 15.009 57.6084 14.8403 57.8616 13.5745C57.735 12.4354 56.7224 11.2962 55.5832 11.0009C54.1487 12.3088 52.1236 13.1526 50.2672 12.8573L54.4441 9.27102C53.7268 8.25843 54.4441 5.81133 52.5877 5.98009C50.7313 6.69735 49.4233 8.55377 47.9888 9.27102C48.4107 11.8447 44.5291 13.2792 46.5543 15.431C48.2842 16.0216 48.5795 14.123 49.5921 13.4058C50.3093 14.2496 49.0014 15.8529 50.014 16.2748C52.1658 16.1482 52.1658 17.8359 53.0096 19.2704C53.3049 20.5783 53.7268 21.2956 52.5877 22.1394C52.4611 23.8692 54.3175 22.8566 55.1613 23.4473C55.752 24.7552 54.0222 25.3037 53.6003 25.7256C51.1532 27.1601 49.5921 29.1853 47.6935 30.873C45.9636 30.873 45.2464 33.0247 43.39 32.0122C42.082 32.6028 40.9429 33.3201 40.5209 34.7546C38.4958 35.0499 38.3692 37.6236 37.4832 39.0581C35.6267 40.366 34.4876 42.0537 32.3358 43.2351C30.7748 42.9397 29.8887 41.674 28.623 41.0833C26.1759 42.6444 26.7666 46.3994 26.1759 48.9731C26.7666 50.1122 27.9057 50.1122 28.7496 49.6903C31.1967 49.5638 29.6356 46.526 30.3106 45.0915H30.606C30.9013 45.6822 31.6186 45.9353 31.3232 46.6526C32.6312 49.6481 31.1967 52.0952 29.8887 54.6689C30.9013 59.1412 24.1507 58.5505 24.5726 63.1494C22.7162 64.8792 24.6992 67.7482 22.5475 69.1827C23.1381 71.7564 21.4083 72.769 22.1255 75.2161C22.2521 76.6506 21.7036 77.7898 20.1004 77.7898C17.9486 80.0681 18.9612 82.9793 18.9612 85.8483C19.6784 87.5782 20.3957 89.1392 20.691 91.0378C23.1381 91.7551 22.2521 95.7633 24.9945 95.7633C26.1337 96.0586 25.1211 97.3244 26.1337 97.7885C28.5808 98.0838 28.2855 101.248 30.606 102.092C33.6016 101.501 33.1797 105.678 34.9095 106.986C35.0361 107.83 34.9095 108.716 34.4876 109.265C35.5002 110.994 34.4876 113.737 36.5128 114.876C35.5002 117.028 38.3692 117.745 38.0739 119.475L39.0865 120.065C39.6771 120.361 39.8037 121.205 39.8037 121.627L37.0613 121.753C35.3314 122.344 34.7829 124.622 33.6016 125.635C33.3062 126.647 33.3062 127.365 33.6016 128.208C33.8969 130.951 34.0235 134.242 36.4706 135.086C35.8799 137.955 40.0569 137.237 40.1834 139.684C43.7697 139.684 44.1916 143.144 45.0776 145.718C47.9466 147.026 46.934 150.907 47.6513 153.481C49.803 154.916 48.7905 157.658 49.5077 159.936C46.934 162.974 51.5329 163.944 50.9422 166.814C51.9548 168.121 53.2205 169.683 55.1191 169.261C56.0052 169.261 56.9756 168.67 57.2709 167.826C58.1147 167.7 58.832 166.982 59.718 167.235C59.718 168.248 60.7306 168.965 61.2791 169.809C59.9712 173.522 64.0215 175.125 63.3043 178.711C66.342 180.146 63.3043 182.888 65.1607 184.154C64.0215 187.318 68.0297 187.74 67.1859 190.905C69.211 191.917 67.3124 194.491 69.3376 195.335C68.4938 196.896 69.4642 197.909 70.6456 198.626C70.519 200.651 72.2067 202.339 70.9409 204.237C71.7847 205.967 72.3754 208.119 73.8099 209.131C73.5146 211.283 75.5397 211.874 75.2444 213.857C76.8055 214.996 78.24 216.304 78.8307 218.287C80.8559 217.865 81.4044 219.721 83.2608 219.3C85.286 219.89 84.3999 222.169 84.8218 223.476C84.6953 226.345 86.1298 228.793 84.8218 231.535C87.1002 233.982 83.2608 236.26 85.5391 238.412C85.8344 240.691 84.3999 241.998 83.2608 243.306C82.1216 242.167 80.5183 243.602 78.8307 243.011C77.2696 244.15 74.8225 243.433 73.8099 245.585C72.7973 246.893 71.5316 245.458 70.3502 245.289C68.6204 245.88 69.633 248.032 68.1984 248.58C65.3294 249.466 64.0215 251.027 61.5744 252.884C60.8572 252.884 60.0133 252.884 59.5492 253.475C59.4227 256.765 55.6676 257.778 53.6847 259.634C53.8112 261.364 52.7986 262.082 52.1236 263.221C48.9592 264.36 47.6513 266.934 46.6809 269.971C41.7867 270.098 45.1198 276.553 40.5209 276.722C40.5209 278.747 39.3818 280.73 38.3692 282.629C37.7785 283.937 36.0487 284.063 36.5128 285.793C34.0657 286.088 35.2048 288.662 34.9517 290.519C30.3528 294.822 30.6482 301.573 26.1759 305.876C25.4587 307.437 25.5852 309.336 24.7414 310.77C25.0367 313.344 22.7162 313.935 21.8724 315.918C21.999 319.504 20.5644 322.542 18.708 324.947C14.6999 328.111 16.8516 334.566 13.5607 338.153C13.4341 341.612 10.6917 342.751 9.84786 345.747C10.987 349.46 7.27418 350.472 7.56952 353.806C6.43035 355.831 5.83967 357.814 4.53174 359.67C4.53174 363.13 0.945472 364.396 1.95806 367.982C1.24081 368.277 1.36739 368.994 1.36739 369.543C0.523561 370.977 1.36739 374.268 -1.50162 374.268C-2.34545 375.703 -0.657804 376.547 -1.07972 377.728C-1.37506 378.023 -1.07971 378.741 -1.67039 378.445C-2.68299 381.019 -2.51422 383.888 -3.94873 386.208C-7.53499 386.63 -5.50979 390.385 -5.9739 392.368C-7.83031 395.111 -7.83031 399.119 -9.43358 402.283C-11.8807 404.309 -11.29 407.726 -11.8807 410.595C-15.8889 413.042 -13.3152 417.894 -16.1842 420.805C-16.0576 422.831 -16.3108 424.518 -17.7453 425.995C-16.9015 428.864 -20.6143 430.889 -19.4751 433.758H-19.7705L-20.1924 434.644C-19.1798 435.657 -19.897 437.091 -20.1924 438.104C-19.7705 439.412 -20.4877 440.973 -21.205 442.112C-21.6269 444.137 -23.2301 446.416 -21.9222 448.567C-24.3693 450.592 -24.2006 453.461 -24.4959 456.584C-27.7868 459.453 -23.7787 463.334 -26.5211 466.33C-27.829 468.482 -24.96 469.621 -26.0992 471.646C-27.1118 474.388 -28.3775 477.384 -27.5337 480.253C-29.3901 482.995 -28.2509 487.004 -29.2635 489.873C-27.9556 490.885 -28.5463 492.446 -29.1369 493.754C-28.5463 496.328 -30.9934 499.492 -30.1495 502.361C-32.3013 503.5 -30.2761 505.23 -30.7402 506.665C-29.7276 509.407 -32.7654 511.559 -32.1747 514.723C-31.7528 517.466 -31.7528 521.052 -33.9046 522.908C-31.7528 526.073 -35.2125 529.532 -32.7654 533.245C-37.0689 536.832 -31.3309 541.557 -34.7906 545.312C-33.6514 546.873 -35.3813 548.772 -34.4952 550.206C-36.5204 551.641 -36.9423 554.088 -36.5204 556.662C-33.778 559.531 -38.0815 561.556 -37.4065 564.678C-33.6936 566.408 -36.2673 569.403 -35.8454 572.272C-33.8202 575.563 -38.5878 578.01 -37.1533 581.048C-34.7062 586.66 -41.4568 589.95 -37.9971 594.971C-38.8832 597.545 -36.6892 598.853 -37.5752 601.005C-36.0141 602.439 -34.8328 605.435 -32.2591 604C-34.5374 605.857 -35.55 608.599 -36.9845 610.751C-36.5626 613.62 -39.727 615.772 -40.5708 618.05C-38.1237 621.341 -42.3006 623.957 -41.71 627.079C-39.9801 628.387 -42.7226 629.231 -42.0053 630.792C-42.0053 631.931 -40.9927 631.804 -40.4442 632.522C-38.8831 634.547 -42.0053 634.547 -41.4568 636.53C-38.4191 637.838 -40.1489 641.255 -40.1489 643.829C-37.5752 645.854 -38.2924 648.259 -37.1111 651.128C-34.9593 653.153 -38.6722 655.6 -36.6892 657.457C-36.5626 658.765 -36.0985 660.916 -37.4065 661.634C-37.1111 663.363 -38.419 664.207 -38.5456 665.515C-41.4146 667.245 -39.2629 672.139 -42.9757 673.11C-42.2585 676.991 -46.0135 677.287 -47.7011 679.565C-46.9839 682.434 -50.2748 682.729 -52.0047 684.29C-51.5827 685.725 -54.283 686.316 -52.4266 687.455C-54.1564 688.341 -53.1438 690.028 -53.7345 691.632C-53.0172 693.361 -54.3252 695.935 -52.1734 697.074L-52.3 697.201L-51.4562 698.045C-51.5827 701.504 -47.8699 700.492 -46.0135 701.336C-44.157 701.926 -41.5412 700.028 -40.1489 702.222C-39.4316 703.783 -41.4568 704.247 -41.1615 705.681C-40.5708 707.833 -40.4442 710.576 -39.1363 712.559C-37.8284 712.98 -36.9845 713.698 -35.6766 714.12C-34.8328 715.006 -32.9342 714.542 -31.795 714.415C-31.3731 715.428 -29.6432 714.415 -28.7572 714.12C-28.04 715.681 -26.4789 714.246 -25.4663 714.415C-23.7365 714.288 -23.0192 715.976 -22.4285 717.157C-22.0066 717.748 -20.5721 717.579 -20.994 718.718C-18.125 720.997 -13.1042 720.448 -9.93989 718.718C-6.35363 718.718 -4.62379 714.837 -0.910948 715.006C0.650131 712.98 1.95808 710.997 3.39259 708.846C6.13502 706.525 6.85228 702.939 9.42595 701.251C10.7339 700.534 10.987 698.678 11.1558 697.37L13.4341 696.062C13.4341 694.627 13.5607 693.488 14.0248 692.18C18.033 691.589 17.1892 687.033 18.033 684.29C18.1596 683.278 19.3409 682.982 19.7628 682.139L19.8894 680.999C18.033 678.552 21.7458 676.991 21.1973 674.418C23.2225 672.856 21.1973 669.692 23.3491 668.089C23.6444 667.076 22.7584 666.781 22.5053 666.064C22.6318 664.207 23.0959 662.477 23.6444 660.748C22.6318 655.727 22.8006 649.567 22.3365 644.251C21.1973 642.816 22.2099 640.791 22.3365 639.23C19.3409 636.066 20.902 631.34 19.7628 627.163C19.0456 624.59 16.5985 622.691 17.3157 620.117C17.7376 618.261 14.5733 617.966 15.8812 616.109C15.164 614.253 16.0078 612.818 14.0248 611.637C14.3201 610.076 13.4341 608.599 14.742 607.333C19.6362 607.924 17.1891 601.722 19.7628 599.865C18.4549 595.689 22.2099 592.271 20.6488 588.263C20.5223 587.25 21.9568 586.406 20.9442 585.394C22.0833 583.115 23.0959 580.246 21.6614 577.631C20.1003 575.774 22.8006 575.184 23.2225 573.622C24.2351 571.049 23.0959 568.475 24.2351 566.323C26.9775 563.75 23.6444 561.598 24.3617 558.434C26.2181 554.847 24.7836 550.375 26.3869 546.536C24.657 544.384 26.8088 542.232 27.1041 540.08C28.2433 536.199 24.9523 532.612 26.6822 528.604C26.8088 528.014 27.6948 527.17 27.6948 526.284C25.9649 523.288 27.6948 520.124 28.834 517.381C28.412 512.783 28.8339 508.901 29.8465 504.471C28.412 499.028 30.1419 494.134 31.1545 488.818C29.4246 485.105 31.8717 481.772 33.0109 478.481C31.8717 472.321 37.6098 469.03 36.7238 462.701C37.8629 461.393 36.7238 459.832 36.7238 458.693C40.0147 456.963 38.1583 452.533 39.8881 449.791C44.065 446.331 41.4492 439.581 46.048 436.712C45.4574 438.737 46.4699 440.888 46.6387 442.871C46.048 444.601 46.934 447.47 45.3308 449.327C45.3308 450.888 44.6135 453.04 46.048 454.052C47.9045 455.782 46.7653 458.06 45.7527 459.664C44.7401 461.942 47.4825 463.25 47.7779 465.106C46.2168 470.549 46.7653 476.16 45.3308 481.603C44.9088 484.05 48.3685 484.767 46.4699 487.215C42.8837 489.957 47.7779 492.109 47.7779 494.978C47.3559 497.13 46.7653 498.564 46.2168 500.589C46.0902 501.897 48.3686 503.332 46.2168 504.175C46.0902 505.737 46.5121 507.34 47.356 508.352C47.7779 509.492 46.9341 510.504 46.2168 511.221C45.0776 513.373 46.934 515.103 47.6513 516.959C45.6261 520.124 46.8075 524.005 47.9466 526.874C48.242 529.912 45.9214 533.752 48.6639 535.903C49.803 540.08 47.1028 543.667 47.356 547.97C48.6639 548.392 47.7779 551.008 49.6343 550.839C51.9126 554.721 48.6217 558.138 48.4951 561.893C48.4951 563.201 50.5203 562.315 49.9296 563.75C45.9215 568.939 48.7905 575.099 47.4825 581.386C46.3434 583.959 49.2124 586.533 47.4825 589.275C47.4825 590.71 46.6387 592.566 47.4825 593.706C48.6217 595.731 48.6217 598.009 47.6091 600.034C48.1998 600.456 48.7483 601.595 48.6217 602.059C48.4951 603.199 49.2124 604.802 47.4825 605.055C49.9296 606.194 46.8919 609.949 49.339 611.679C49.0436 612.987 50.0562 614.253 49.4655 615.392C49.7609 615.518 48.8748 616.109 49.5921 616.278L49.2968 616.7C49.5921 617.417 48.5795 619.738 50.1406 618.978C50.014 619.695 50.7313 620.286 51.1532 621.003C51.2798 621.847 51.7439 623.028 51.1532 623.746C51.7439 624.758 50.7312 627.459 52.7142 627.037L52.4189 627.332H53.0096C53.7268 627.754 53.8534 628.64 54.3175 629.188C53.7269 631.762 55.8786 633.07 56.3427 635.095L56.4693 634.378C57.1865 635.939 57.6084 638.26 59.507 639.103L59.3805 639.23C61.1103 640.369 58.0725 641.086 59.507 642.268C57.946 643.829 61.0681 643.28 61.2369 643.829C60.815 645.39 62.5448 645.981 62.9667 647.289C63.3886 647.415 64.5278 648.301 64.1059 649.018H63.9793V649.736L64.57 649.862C64.57 651.297 66.1311 652.141 67.3125 653.153C67.0171 654.461 68.8735 655.305 68.4516 656.739C69.1688 657.457 70.1814 657.583 70.8987 658.174C71.0253 660.452 74.0631 661.634 73.1771 664.503C73.7677 666.654 74.7381 668.384 76.2148 669.65C75.4976 670.536 75.6241 672.224 74.1896 672.224C72.8817 673.532 75.3288 673.658 75.2022 674.671C75.0756 676.822 70.308 677.413 72.6285 680.113C73.3458 680.831 72.7551 681.843 72.502 682.392C70.7721 683.278 70.9409 685.683 69.7596 687.286C70.6034 689.733 67.3125 690.872 68.6204 693.615L66.764 696.188C65.3294 697.454 66.1733 699.775 64.0215 700.618C64.4434 704.331 61.1525 705.639 62.1651 709.225C60.1399 711.082 60.7306 714.246 58.7054 715.849C58.5789 718.718 56.9756 721.166 56.5537 723.613H56.2583C55.1192 724.33 56.1318 725.469 56.1318 726.482C53.3893 728.76 53.094 731.081 52.6721 734.245C52.2502 735.679 50.225 735.975 50.8156 737.409C51.2376 738.548 50.5203 739.688 50.0984 740.7C47.2294 740.405 49.0858 744.708 47.8201 746.312C47.3981 747.62 45.373 747.746 46.5121 749.349C46.0902 750.784 45.2042 751.923 43.9385 752.345C43.5166 753.653 43.0946 755.214 43.5165 756.522C43.9384 757.83 42.082 757.956 42.2086 758.969C42.3352 761.247 41.0694 762.851 39.1708 763.568C38.0317 766.732 39.7615 771.036 37.0191 772.892C36.4284 773.483 36.133 774.031 36.3018 774.917C33.5594 775.93 35.1627 779.094 33.5594 780.655C33.2641 783.524 32.1249 785.845 30.2684 787.828C32.1249 792.131 26.8088 793.861 28.1167 798.038C27.2307 799.895 24.5304 800.317 25.543 802.764C23.982 803.607 24.5304 805.506 23.6866 806.772C22.2521 808.797 24.4039 811.371 22.5475 812.51C21.5349 813.649 20.2691 815.083 19.5518 816.518C21.1129 818.374 18.4127 819.682 18.1174 821.243C17.2313 822.087 18.4127 823.986 16.9782 824.534C12.8013 826.264 16.6828 831.412 13.2231 833.859C13.2231 836.601 10.7761 836.896 9.93222 839.301C8.79306 841.453 10.9448 843.731 8.07583 845.039C8.07583 846.896 6.05063 847.908 6.51474 850.06C4.65832 851.917 7.6539 856.22 3.64572 857.106C3.35038 859.68 2.33779 862.844 0.481374 864.869C1.19863 868.456 -2.26106 869.89 -2.80955 873.054C-1.0797 875.797 -4.66595 877.063 -4.11747 879.678C-2.9783 881.113 -4.96132 881.957 -5.42542 883.138C-5.72076 883.855 -6.73334 883.56 -6.56457 884.573C-6.98649 884.573 -6.9865 885.712 -7.70376 885.416C-7.28184 885.838 -7.99909 889.129 -8.421 890.564L-7.99909 890.69L-10.0243 892.716C-9.01167 894.445 -11.0369 895.458 -11.0369 896.893C-11.6276 897.483 -12.3448 898.749 -13.1886 898.454C-13.9059 899.171 -14.7497 900.183 -14.2012 901.491C-16.2264 902.631 -16.0576 904.782 -16.7749 906.639C-19.5173 907.061 -15.7623 910.098 -17.9141 911.659C-20.3612 912.081 -19.0532 914.824 -20.3612 916.09C-22.5129 916.09 -21.5003 917.651 -22.2176 918.959C-20.783 924.275 -27.1117 925.287 -25.5085 930.603C-26.2257 932.333 -28.0822 934.485 -30.1073 935.033C-29.9808 937.481 -30.1073 940.645 -31.5418 942.628C-30.9512 944.653 -33.567 944.78 -33.8202 946.214C-31.6684 950.096 -36.6892 952.121 -37.8284 955.117C-38.419 956.425 -37.533 957.859 -38.1237 959.125C-39.4316 960.981 -40.9927 963.428 -43.2711 964.146C-44.1149 965.707 -42.9757 967.31 -42.8491 968.871C-43.8617 969.462 -44.1571 970.601 -44.4102 971.613C-45.1275 973.174 -43.8195 974.904 -45.1275 976.086C-45.4228 979.25 -48.7137 980.98 -48.1652 984.102C-49.5997 985.41 -49.7263 987.688 -50.7389 989.123C-51.1608 990.389 -50.1482 990.557 -49.7263 991.401C-51.8781 991.823 -53.0172 993.679 -53.3126 995.705C-54.6205 997.013 -57.0254 997.856 -58.2068 999.164C-60.3585 1002.62 -63.8182 1005.2 -63.6494 1009.5C-66.5185 1011.36 -66.5185 1013.8 -68.5437 1016.25C-67.8264 1019.54 -70.9907 1021.86 -70.5688 1025.03C-71.1595 1025.74 -70.2735 1026.46 -71.2861 1026.88C-74.4505 1027.6 -74.8724 1031.31 -76.4335 1033.63H-76.8554C-77.1507 1035.36 -78.1633 1036.93 -78.8805 1038.66C-80.7369 1040.51 -79.7244 1042.66 -79.7244 1045.11L-79.1337 1044.69C-76.0959 1046.12 -75.5474 1049.41 -71.9611 1050.13C-70.4001 1049.71 -70.5266 1051.86 -69.514 1052.58C-65.9278 1052.71 -64.3667 1057.01 -60.4851 1056.76C-58.6287 1059.92 -54.1564 1059.79 -51.8781 1061.95C-50.317 1063.67 -47.7011 1062.66 -45.8447 1063.25C-43.693 1066.54 -40.2333 1064.27 -37.3643 1065.11V1065.4L-37.6596 1065.53H-36.647C-34.7906 1067.26 -33.4826 1064.69 -32.4701 1063.8C-31.0355 1061.65 -29.8964 1059.5 -27.7446 1058.06C-27.8712 1059.92 -26.1835 1061.35 -26.0148 1063.25C-22.8504 1065.7 -22.977 1069.41 -20.5721 1072.45C-18.4203 1072.45 -17.7031 1075.49 -15.8467 1076.04C-13.8215 1078.61 -10.404 1079.62 -8.3788 1082.2C-7.95689 1084.35 -5.21447 1083.21 -3.65339 1083.76C-3.65339 1084.6 -5.21446 1083.76 -4.79254 1084.9C-1.92353 1084.31 -0.910943 1086.46 1.07205 1087.77C2.50656 1089.5 4.95366 1087.89 6.68351 1088.36C8.24459 1090.8 11.4089 1091.1 13.4341 1092.96C15.5859 1093.55 18.033 1093.8 20.0582 1094.69C22.0833 1094.56 23.6444 1097.13 25.5008 1096.12C26.8088 1097.98 28.7918 1097.68 30.817 1097.85C32.378 1097.55 33.686 1098.57 34.9939 1099.41C36.555 1100.85 37.3144 1098.4 38.5801 1098.52C41.8711 1101.1 46.048 1097.93 48.7904 1099.96C50.0984 1099.96 51.0688 1101.27 52.2501 1100.38C53.2627 1100.8 54.6972 1099.54 55.4145 1100.97C56.849 1101.39 58.5788 1101.1 59.718 1100.13C61.1525 1099.54 61.8698 1099.83 63.1777 1100.42C64.4856 1101.14 65.456 1100 66.6374 1099.83C68.3672 1100.42 70.0971 1099.83 71.8269 1100.25C72.2488 1100.85 73.388 1100.85 73.8521 1099.96C75.582 1099.96 76.1305 1098.23 77.8603 1098.95C79.5901 1099.07 80.8559 1097.39 82.4591 1097.51C83.4717 1094.94 86.3408 1097.81 87.4799 1094.94C88.1972 1092.91 88.9144 1091.06 90.6443 1089.79C90.7708 1088.48 90.9396 1087.34 90.3489 1086.2C90.9396 1081.77 88.6191 1079.03 90.3489 1075.02C88.0706 1073 90.4755 1070.72 89.7582 1068.27C89.6316 1067.13 87.4799 1067.13 87.6065 1065.7C90.1802 1062.96 85.4547 1062.54 84.5687 1060.81C84.6953 1057.51 80.8559 1057.64 79.4214 1055.36L73.8099 1054.35C69.633 1051.78 63.7684 1053.76 59.8868 1051.78C56.7224 1054.65 54.866 1048.32 51.5751 1051.19C49.4233 1049.46 46.1324 1049.03 43.2634 1048.32C42.968 1047.47 41.5335 1047.3 41.7023 1046.46C41.1116 1045.87 40.6897 1045.32 39.9725 1045.62C39.3818 1044.48 37.6519 1043.89 37.8207 1042.33C36.9769 1040.89 35.3736 1040.76 33.9391 1040.47C32.0827 1039.88 32.6312 1037.47 31.6608 1036.17C30.6482 1036.17 29.6356 1036.04 28.7918 1035.58C27.9479 1034.98 28.7918 1034.27 28.7918 1033.72C29.9309 1031.15 26.9353 1031.86 26.0493 1030.72L26.64 1030.43C26.0493 1028.57 24.1929 1026.42 23.0537 1024.99C23.4756 1024.39 22.2099 1023.68 23.0537 1023.26C22.9272 1022.54 23.4757 1021.4 22.6318 1021.1C21.3239 1017.81 24.3617 1014.52 26.5134 1012.2L27.8214 1006.89C26.5134 1004.14 28.9605 1003 30.395 1001.15C30.6904 1000.01 30.2685 999.122 30.817 997.983C32.6734 997.856 32.8421 995.958 33.8125 994.523C33.686 992.498 34.5298 990.642 34.4032 988.785C37.8629 986.929 36.133 981.317 39.2974 979.292C40.0146 977.858 40.7319 976.001 40.31 974.567C39.7193 973.259 41.0272 972.71 41.8711 971.993C41.9976 971.571 42.293 970.559 41.7445 970.137C42.6305 967.268 42.6305 964.821 44.3182 962.247C44.4447 961.234 44.1916 959.8 44.7401 959.083C47.0184 959.378 45.162 956.931 46.7653 956.34C47.1872 952.627 51.9548 952.627 51.4907 948.028C52.7987 946.299 50.4781 946.299 50.4781 944.569C50.7734 943.978 51.4907 943.683 52.0392 943.43C52.4611 942.417 55.3301 941.995 53.8956 940.856C54.0222 940.265 54.0222 939.717 54.4863 939.126H54.191C53.4737 937.692 54.9082 937.565 55.6254 936.679C55.3301 934.401 58.1991 933.093 57.1865 930.646C57.3131 929.76 58.0303 929.085 58.9164 928.62L58.7898 928.494C58.0725 927.355 59.2117 926.933 59.8024 926.342C58.6632 923.304 62.5448 921.448 61.8276 917.862C62.4183 916.554 63.5574 915.288 64.9919 914.993V912.714C66.1311 911.87 64.8653 909.972 66.0045 909.001C66.2998 905.71 70.1814 904.403 70.308 901.112C73.7677 899.804 70.7299 895.374 73.4724 893.517C75.9195 893.095 74.0631 889.931 75.7507 888.623C75.1601 886.471 76.6367 885.037 77.9025 883.476C80.0542 882.632 78.6197 879.172 80.8981 878.16C81.4888 873.729 83.1764 869.257 85.4969 865.376C86.0876 863.941 84.6109 861.494 86.6361 860.65C85.4969 858.203 88.6613 856.769 89.2098 854.786C89.5051 850.482 91.9522 847.191 93.5132 843.31C94.3993 840.567 96.6776 838.415 96.0869 835.124C96.6776 834.998 96.973 834.407 97.2261 833.985C97.0995 832.255 98.1121 830.821 99.6732 829.977C98.534 828.416 100.264 826.686 100.981 824.956C103.555 823.648 100.981 820.779 102.416 819.514C101.994 817.235 103.977 816.771 105.285 815.505C104.989 814.071 105.411 812.763 106.593 811.793C106.002 809.05 109.757 808.755 108.871 806.055C110.601 803.481 111.318 799.895 114.482 798.587C114.356 797.448 114.904 796.435 113.596 796.14C114.187 794.832 116.761 793.988 116.043 792.258L115.622 791.963C117.351 790.823 115.622 789.389 116.761 787.786L117.605 787.912C119.925 785.465 119.039 781.584 120.474 778.715C121.317 778.841 121.317 779.727 121.613 780.444C122.921 782.301 120.895 785.043 122.625 786.604C124.186 787.912 124.946 790.064 125.368 791.92C126.802 793.482 125.241 796.097 126.254 797.363C128.532 797.954 127.984 800.949 129.418 802.257C129.123 804.831 132.878 804.831 131.696 807.995C132.836 809.43 131.274 811.75 133.848 812.721C134.143 813.311 133.848 813.733 133.426 814.155C133.131 814.873 133.426 815.59 133.848 816.18C135.578 817.024 134.987 819.64 135.873 821.201C137.73 822.34 136.464 825.674 137.181 827.066C136.337 830.061 139.924 830.357 139.755 833.099C140.472 833.816 139.628 834.829 140.599 835.546C140.008 838.289 141.907 839.133 143.468 840.736C143.173 843.478 144.48 845.63 145.915 847.782C145.324 851.241 148.193 853.815 147.771 857.401C148.489 860.566 152.37 863.013 150.64 866.599C153.931 867.907 152.201 871.915 153.678 873.94C156.125 875.248 155.239 877.949 155.703 880.1C154.859 883.096 158.572 882.674 158.446 885.121C157.433 888.117 160.302 890.015 161.315 892.589C161.315 894.445 161.441 896.302 163.34 897.314C162.749 901.196 163.931 903.179 166.209 905.795C166.8 907.103 166.209 907.947 165.914 909.086C166.336 910.942 166.926 913.094 168.487 913.98C169.795 915.288 169.205 916.258 169.078 917.862C169.078 918.874 169.922 918.705 170.386 919.423C171.398 922.292 172.664 924.739 171.947 927.903C172.369 928.199 172.96 929.042 173.508 929.211C174.647 931.236 173.803 933.515 175.533 934.949C175.955 935.666 175.407 936.679 175.407 936.974C177.685 936.974 176.124 939.843 177.263 940.856C179.119 941.995 179.288 944.442 179.837 946.467C178.824 948.619 181.693 948.914 181.988 950.644C180.427 953.935 184.731 956.382 182.579 959.125C181.018 961.15 180.849 964.146 180.723 966.593C178.698 968.027 179.415 971.613 177.263 973.048C176.25 974.609 175.829 976.634 176.25 978.659C175.829 981.106 172.96 982.963 173.508 985.705C173.508 989.46 170.048 992.034 170.512 995.916C169.078 997.772 169.205 1000.81 168.487 1003.26C167.643 1004.1 167.179 1005.11 166.926 1006.25C166.04 1009.29 164.353 1012.88 164.057 1016.29C163.045 1017.01 163.34 1018.87 161.779 1018.87C162.623 1022.03 160.471 1024.31 160.218 1027.18C159.205 1030.17 159.205 1033.51 157.475 1036.38C157.771 1039.37 155.197 1040.68 154.016 1042.83C154.142 1045.28 154.142 1047.43 151.864 1048.87C151.02 1051.14 151.147 1053.17 150.429 1055.45C148.278 1058.02 147.687 1061.19 146.126 1064.05C144.396 1066.21 142.413 1068.48 142.666 1071.82C141.949 1074.1 139.797 1075.99 140.093 1078.69C142.118 1079.83 140.388 1083.17 141.654 1084.6C142.793 1085.32 143.215 1087.89 145.24 1087.47C147.265 1089.5 150.556 1089.2 152.708 1091.06C153.847 1091.77 155.577 1091.77 156.716 1092.07C158.572 1091.06 160.176 1093.38 162.327 1093.63C163.466 1094.35 164.353 1092.91 165.365 1092.62C167.517 1091.06 169.542 1089.75 170.977 1087.47C171.863 1084.01 173.424 1081.14 174.014 1077.43C176.757 1075.4 173.297 1072.7 174.858 1070.26C174.563 1066.67 176.293 1063.51 177.137 1060.05C180.301 1056.33 176.841 1049.41 181.609 1046.42C182.748 1044.39 181.482 1043.13 182.917 1041.1C182.495 1038.53 185.659 1037.52 184.942 1034.65C185.954 1032.92 185.828 1030.77 186.376 1029.04C190.089 1027.9 186.798 1024.02 188.233 1021.74C190.511 1021.15 189.372 1018.28 191.102 1017.14C190.385 1012.41 193.676 1009.54 193.676 1004.78C195.405 1002.33 195.701 999.038 196.966 996.169C199.118 997.477 199.118 1000.18 198.992 1002.79C199.582 1002.5 199.582 1003.21 199.709 1003.38C202.873 1004.69 199.709 1009.71 203.717 1010.85C202.409 1012.29 204.73 1013.42 203.717 1015.15C204.434 1016.46 206.291 1017.18 205.573 1019.33C207.135 1021.48 206.417 1024.94 208.864 1026.63C209.16 1027.22 208.991 1027.94 209.286 1028.19C208.442 1030.77 211.312 1031.36 211.438 1033.51C209.16 1035.53 212.746 1035.79 212.577 1037.69C210.552 1041.14 215.742 1041.27 213.885 1044.73C214.18 1046.29 215.615 1045.87 216.459 1047.01C216.459 1048.87 218.779 1048.87 218.779 1050.6C217.345 1053.17 219.201 1056.33 217.893 1058.78C216.459 1061.23 219.033 1062.49 218.779 1064.94C219.201 1066.67 218.653 1068.82 220.805 1069.96C221.1 1072.83 220.509 1075.57 221.944 1078.02C222.07 1080.05 223.8 1081.18 223.969 1082.62C225.53 1085.91 225.403 1089.5 226.416 1092.96C226.416 1095.53 229.158 1096.54 228.99 1098.82C230.002 1099.12 228.694 1100.68 230.298 1101.1C231.437 1100.38 231.31 1102.53 232.449 1102.24C234.01 1102.11 235.318 1103.25 236.879 1103.25C239.2 1103.25 242.196 1103.67 244.052 1102.24C245.191 1102.24 246.33 1100.8 247.512 1102.11C249.073 1100.8 251.098 1102.41 252.828 1101.39V1101.82C252.828 1102.41 253.967 1102.66 254.558 1102.24C254.853 1098.23 259.705 1103.08 261.308 1099.37C263.165 1100.68 265.19 1100.21 267.468 1099.5C268.776 1098.36 270.928 1099.2 272.067 1097.47C273.797 1096.46 276.792 1097.17 276.961 1094.47C277.088 1093.17 278.818 1093.88 279.83 1093.59C281.138 1093.46 280.126 1092.15 280.547 1091.56C282.109 1090.42 280.969 1088.4 281.265 1086.84C279.704 1085.53 282.151 1084.56 280.547 1082.96C281.391 1081.65 282.995 1080.51 284.851 1080.51C287.003 1079.92 288.437 1082.07 290.589 1081.94C291.306 1082.96 291.728 1080.64 292.741 1081.23C293.331 1081.94 295.061 1081.1 294.597 1082.53C295.188 1082.66 295.441 1082.53 295.905 1082.24C298.057 1083.25 300.209 1082.53 302.656 1082.96C304.512 1083.8 307.086 1083.97 309.238 1084.1C310.377 1084.69 311.685 1083.8 312.95 1083.8C313.541 1083.93 314.385 1084.22 314.807 1084.81C315.524 1085.11 316.115 1084.22 316.537 1083.97C318.393 1083.84 319.701 1082.24 321.853 1082.83C322.739 1082.83 322.57 1083.42 323.583 1082.96C325.312 1082.24 327.591 1082.07 329.447 1081.94C330.46 1081.94 330.586 1080.8 331.177 1080.38C333.034 1080.26 335.481 1080.09 337.337 1079.07L337.21 1078.65C339.658 1076.08 344.678 1077.51 347.421 1074.64C349.699 1075.24 351.598 1073.08 353.749 1073.34C354.889 1072.75 355.606 1071.48 356.492 1070.89C359.656 1070.17 363.369 1070.47 365.521 1067.89C368.981 1069.2 368.812 1064.73 371.132 1064.31L371.006 1063.89C372.314 1062.87 374.17 1063.17 375.183 1061.61C376.617 1061.31 376.912 1058.87 378.769 1059.16C379.613 1059.29 379.36 1058.02 380.33 1058.27C381.343 1056.25 384.507 1054.39 385.055 1052.41C385.351 1051.4 386.49 1051.82 387.081 1051.27C388.515 1048.82 390.793 1046.67 392.692 1044.52C392.987 1043.38 391.975 1041.23 394 1040.93C393.283 1039.84 394.422 1038.23 392.861 1037.69Z" fill="#231F20"/>
<path d="M78.1978 88.211C79.3369 89.9409 80.3495 87.9157 81.4887 88.9283C82.6279 91.5019 86.2141 92.5145 87.944 94.3709C89.0831 94.2444 90.5176 93.949 90.9395 95.2148C91.6568 96.5227 92.796 95.0882 93.682 95.8054C94.1039 99.687 98.2808 98.801 100.137 101.122C102.162 99.9824 103.175 101.839 104.441 102.851C107.014 102.008 108.154 105.299 110.474 103.695C111.191 103.695 111.613 104.117 112.035 104.539C115.621 103.695 119.081 106.564 122.077 103.948C123.385 103.526 123.385 104.961 124.355 105.088C125.494 104.792 127.393 105.088 127.646 103.526C129.376 102.387 131.232 104.37 132.793 102.936C133.384 103.526 134.523 104.666 135.536 103.653C136.38 103.526 136.253 102.345 137.266 102.936C137.856 105.088 139.291 106.817 139.839 108.843C141.274 109.686 142.708 110.699 142.413 112.851C143.974 113.568 144.987 115.298 145.577 116.859C147.138 117.154 148.151 118.715 148.742 119.897C147.729 119.179 144.565 120.192 145.155 117.45C142.582 116.732 142.708 113.863 140.725 112.302C140.303 111.29 140.303 110.024 139.164 109.433C138.742 109.56 137.856 109.855 137.434 109.138C136.548 105.847 132.709 107.999 131.106 106.142C128.237 107.703 125.79 104.412 123.342 106.564C122.035 106.269 120.6 105.256 119.166 106.142C118.322 106.733 117.436 107.281 116.297 106.986C114.567 109.433 112.12 109.56 110.263 111.29C109.546 113.146 106.803 113.02 107.099 115.003C106.255 115.003 106.086 115.846 105.538 116.31C105.96 117.154 104.525 117.323 105.116 118.336C102.669 119.053 104.989 124.074 101.234 122.513C99.7997 122.639 97.9433 122.513 96.9307 121.5C95.4962 118.758 96.2135 114.623 91.7834 114.749C90.7708 113.737 90.8973 111.585 89.0409 111.458C87.3111 112.893 86.1719 110.319 84.4421 111.163C84.1467 107.999 80.8558 110.741 79.4213 109.433C77.8602 109.138 75.835 107.577 74.5271 109.433V109.56C71.7846 108.252 69.3798 111.712 66.4685 111.712C64.4434 112.724 64.6121 115.003 62.4604 115.72C62.0385 117.998 59.296 118.884 59.5914 121.458C57.313 121.331 57.8615 123.905 56.3005 124.622C56.1739 125.213 56.5958 125.93 56.0051 126.183C54.5706 126.183 53.7268 127.618 52.1235 127.027C52.1235 125.171 53.4314 122.724 52.5454 120.867C52.672 119.306 51.2375 117.998 52.2501 116.437C52.2501 115.003 50.9421 114.285 51.364 112.555C52.0813 114.581 54.655 113.695 55.2457 115.846C56.8067 116.69 58.9585 116.437 59.9711 118.125C60.393 118.125 60.9837 117.998 61.1103 117.407C61.9541 113.399 59.3804 109.94 59.9711 105.509C58.41 103.484 59.2538 100.362 60.2664 98.3369C60.2664 100.784 63.5573 99.7714 62.8401 102.64C62.8401 105.383 66.4263 104.075 66.4263 106.522C66.8483 107.408 67.5655 106.649 68.2828 106.522C69.5907 106.817 69.7173 108.674 71.1518 108.674C73.0082 107.535 71.2784 105.509 71.9956 103.948C72.4175 102.809 72.2909 100.953 71.5737 99.6449C71.869 96.7758 71.8691 93.1896 72.5863 90.0252C71.1518 89.308 73.0082 88.2954 72.7129 87.1562C72.291 86.1436 72.7128 85.0045 73.1348 83.9919C74.738 85.342 77.3117 86.4812 78.1978 88.211Z" fill="#FBC7AB"/>
<path d="M128.448 111.754H129.292C130.304 113.062 133.89 112.049 133.89 114.791C135.325 115.087 136.338 116.099 137.181 117.365C137.055 119.517 140.346 118.8 139.333 121.078C139.207 122.386 141.19 123.356 139.755 124.538C140.768 126.689 140.768 128.715 139.755 130.698C140.894 132.849 137.308 133.145 138.742 135.296C136.717 135.592 137.856 138.461 135.705 138.039C134.397 139.473 133.258 141.33 130.979 140.781C130.389 141.203 129.967 141.372 129.84 141.92V142.511C128.701 142.933 127.266 142.638 126.38 142.216C124.524 143.102 122.794 142.638 120.938 143.102C119.799 140.233 115.495 143.524 115.2 139.811C113.343 139.684 114.187 136.942 112.457 136.647C112.584 133.356 107.858 131.33 109.884 127.618C109.588 126.057 108.154 124.453 109.884 123.314C110.179 122.302 109.166 120.445 110.77 120.15C110.77 119.011 112.078 119.264 112.626 118.589C112.331 115.298 115.917 116.015 117.225 113.99C118.069 114.116 118.533 113.104 119.081 112.682C119.925 113.104 121.107 112.977 121.824 112.091C123.849 113.399 125.41 110.361 126.971 112.218L128.448 111.754Z" fill="white"/>
<path d="M80.7715 115.762C81.3622 116.353 82.0794 116.479 82.7967 116.057L83.2186 115.931C84.5265 117.956 88.2394 117.492 88.5347 120.108C90.0958 121.12 91.1084 122.133 91.9944 123.567C91.5725 124.158 91.4037 125.128 91.9944 125.592C93.1335 127.322 93.5555 129.052 92.8804 131.035C93.4711 133.06 91.3193 135.339 91.9944 137.49C91.699 139.642 89.5473 140.233 88.9988 141.963C86.4252 141.836 87.1424 145.676 84.8219 144.958L84.9484 145.085C83.2186 145.802 80.9403 147.532 78.9151 146.224C78.0291 146.351 77.7759 147.068 77.0587 146.815C75.9195 144.368 73.3458 147.405 72.1645 144.79C70.6034 143.65 67.439 144.072 67.5656 141.33C66.553 140.739 65.2873 140.613 65.2873 139.051C63.5574 137.912 64.57 135.339 63.1355 133.862C63.2621 132.132 61.1103 130.571 63.1355 128.968C62.7136 126.943 63.1355 123.82 65.1607 122.639C66.4686 122.048 66.2999 119.897 67.6078 119.348C67.7344 118.04 69.0423 117.323 69.8862 116.479C70.3081 116.901 70.8987 117.07 71.616 116.901C72.2066 114.327 75.3288 116.479 76.7633 114.749C78.1978 115.34 80.0543 114.159 80.7715 115.762Z" fill="white"/>
<path d="M128.701 124.664C128.996 125.972 129.587 127.829 128.827 129.263C127.815 130.698 126.254 130.698 124.651 131.12C123.343 130.529 121.908 129.812 121.613 128.377C120.769 127.069 121.739 126.099 121.908 124.917C122.921 124.074 124.355 122.639 126.212 123.188C127.14 123.778 128.152 124.074 128.701 124.664Z" fill="#231F20"/>
<path d="M149.67 126.225C148.235 128.799 149.079 132.385 147.096 134.706C147.814 136.562 145.788 137.87 146.252 139.895C144.227 142.638 146.97 146.224 143.974 148.376C144.396 151.245 143.088 153.692 143.257 156.561C141.4 158.713 143.383 162.299 141.4 164.155C142.118 166.307 140.261 167.868 140.683 170.02C138.531 171.159 140.388 173.311 139.839 175.336C137.814 177.91 138.278 181.665 137.266 184.365C137.688 185.504 136.548 185.673 136.253 186.517C137.266 190.398 134.228 193.267 134.945 196.854C133.089 198.162 133.215 201.031 132.498 203.014C130.642 204.322 132.076 207.191 129.924 208.034C130.051 208.92 128.195 209.595 128.912 210.608C128.068 212.338 126.169 212.886 124.608 213.351C122.752 214.785 120.727 216.641 118.448 216.388C116.592 219.131 114.44 214.658 112.71 217.527C110.432 216.684 108.28 218.54 105.833 217.949C105.411 218.54 104.694 219.089 103.977 218.54C103.681 217.949 102.838 217.823 102.12 217.527C99.6732 218.962 95.9603 218.54 92.9226 217.949C91.91 217.359 90.7708 217.359 89.4629 217.359C88.7457 216.051 87.0158 214.912 85.5813 215.798C84.4422 214.785 83.2608 213.351 81.4044 213.351C79.5479 211.916 77.8181 209.342 77.9446 206.473C74.4849 205.039 77.8181 199.132 73.7677 197.866C75.3288 194.575 71.7426 192.972 72.2067 189.85C69.1689 186.812 69.7596 182.382 69.0423 178.374C67.6078 177.53 68.1563 175.378 66.5952 174.661C66.7218 170.484 63.3043 167.362 64.4435 163.016C62.7136 161.877 63.8528 159.43 62.2917 158.122C63.0089 154.662 59.5492 152.975 59.718 149.642C58.2835 149.051 58.8742 147.785 58.4101 146.773C59.1273 146.055 58.7054 144.747 58.2835 144.03C55.7098 143.018 57.8616 140.022 55.5411 139.009C55.963 136.984 53.3893 136.267 54.1066 133.989C55.1191 134.115 55.5411 133.398 56.2583 132.976C57.2709 134.832 56.5537 137.406 58.7054 138.419C58.2835 139.136 57.8194 139.98 58.7054 140.57C59.1273 142.005 60.7306 143.018 61.2791 144.283C60.8572 145.296 61.8698 145.422 62.1229 145.844C64.9919 144.705 63.2621 149.009 65.8357 148.587C66.553 149.178 66.4264 150.317 67.5656 150.443C69.0001 151.034 69.8439 149.304 70.73 151.034C73.599 149.009 75.3288 154.916 78.6197 152.047C79.7589 153.608 80.8981 151.456 82.3326 151.92C83.0498 151.498 83.6405 150.781 84.4843 151.034C84.9062 151.751 85.6235 151.16 86.2142 151.034C86.8048 150.021 88.0706 150.317 89.0832 150.021C89.927 149.304 89.2098 147.574 90.6443 147.448C92.0788 148.038 93.2179 146.857 93.9352 145.591C93.9352 143.566 96.6776 143.144 96.6776 141.288C97.2683 139.98 97.0995 138.545 98.534 137.575C97.8168 134.706 99.5466 132.554 99.6732 129.812C99.9686 129.094 100.981 129.516 101.403 128.799C101.53 129.643 102.711 129.39 102.964 129.643C104.103 131.204 103.091 133.946 105.242 134.79C104.821 135.634 105.116 136.815 106.086 137.069C107.394 137.069 106.213 139.094 107.099 139.642C108.533 140.36 107.985 142.385 109.673 142.385C109.968 144.663 112.246 144.958 113.259 146.688C114.398 148.418 116.719 146.266 117.689 147.827C119.25 146.815 118.997 149.262 120.136 149.135C121.992 147.996 124.018 150.865 125.03 148.249C127.351 149.979 129.924 148.123 131.907 146.815C132.498 147.237 133.342 147.659 134.059 147.237C135.072 144.494 138.658 144.958 139.206 142.216C141.654 142.933 141.485 139.938 142.919 138.756C143.046 136.9 145.957 136.014 144.354 133.735C145.198 131.584 146.506 129.263 145.915 126.69C145.915 124.833 148.067 126.099 149.079 125.382L149.67 126.225Z" fill="#FBC7AB"/>
<path d="M80.3496 127.829C81.4888 129.137 81.4888 131.12 81.1934 132.849C80.1808 133.693 79.6323 134.579 78.1556 134.875C76.8477 134.875 75.582 134.453 74.696 133.735C73.9787 132.596 73.2615 130.866 74.1053 129.432C75.0335 127.238 78.4932 125.677 80.3496 127.829Z" fill="#231F20"/>
<path d="M112.331 153.945C112.457 156.097 110.474 156.814 109.166 158.122C107.31 157.7 105.875 160.991 103.85 159.135C102.416 160.147 100.812 160.147 99.42 159.43C98.534 160.147 96.9729 160.147 96.1291 159.557C95.7072 158.122 93.8508 159.135 92.8382 158.544C92.2475 157.405 89.6738 156.392 91.1083 154.536C92.5428 153.101 94.568 155.675 96.2557 155.253C97.3948 154.958 97.9855 157.7 99.2935 156.266C100.601 156.688 101.867 155.844 103.006 156.561C104.314 156.266 105.158 155.548 106.466 155.97C107.31 154.409 109.757 154.662 110.474 152.975C111.487 152.806 111.909 153.354 112.331 153.945Z" fill="#231F20"/>
<path d="M129.291 155.253C130.726 157.405 132.16 160.569 134.608 161.708C134.734 162.299 135.325 162.552 135.03 163.143C131.992 165.295 131.443 159.852 128.87 163.143C128.574 165.295 126.127 163.269 125.874 165.421C123.596 165.716 123.132 168.881 120.727 167.995C119.587 170.273 116.423 168.712 115.115 170.864C112.246 169.134 111.529 173.606 108.955 171.708C108.533 171.834 107.394 171.286 107.099 171.834C106.508 172.551 105.538 172.13 104.778 171.834C103.766 171.117 103.344 172.678 102.205 172.551C99.7575 171.961 97.4792 173.986 95.3274 171.834C94.1883 171.834 93.3023 172.847 92.2897 172.256C91.5724 171.834 91.4458 171.539 90.8552 170.948C90.0113 171.37 89.1253 171.665 88.1127 171.539C86.2563 169.682 83.2185 171.834 81.9528 169.092C80.6449 169.936 79.2104 169.092 78.0712 168.374C78.0712 167.488 77.0586 168.248 76.7632 167.657C74.1895 166.096 73.3036 169.092 71.7425 170.104C71.3206 170.104 70.7299 169.809 70.7299 169.261C70.4345 168.248 72.0378 167.953 71.7425 166.687C72.8817 164.535 74.1896 162.679 74.6115 159.936C75.2022 159.936 75.3287 159.092 76.046 159.346C76.8898 160.485 76.4679 161.793 76.1725 163.058C77.607 164.493 80.0542 164.366 81.3621 166.518C84.8218 167.109 87.9861 167.109 90.8129 168.796C91.8255 168.67 92.2475 167.953 93.5554 168.206C94.8633 170.357 97.1416 167.784 98.4496 169.64C100.475 170.231 101.487 168.501 103.47 169.05C103.892 168.206 105.031 168.754 105.791 168.459C107.225 170.02 109.377 168.332 110.938 168.881C112.668 165.716 117.52 169.598 118.701 165.421C121.275 166.729 120.558 163.143 122.878 163.691C123.596 161.666 125.621 162.552 126.465 161.118C127.055 160.4 129.038 159.81 128.49 158.544C127.899 157.531 127.182 157.109 127.182 155.801C127.562 155.253 128.574 155.253 129.291 155.253Z" fill="#231F20"/>
<path d="M101.867 193.985C103.302 194.702 104.61 194.828 106.171 194.111C107.732 194.407 109.63 192.803 110.77 194.111C111.192 195.546 109.462 195.546 109.04 196.136C106.888 195.419 106.466 198.584 104.314 197.444C103.302 197.444 102.163 196.854 101.277 197.318C98.4076 197.191 95.4119 196.474 93.5133 194.449C93.6399 193.436 94.5259 193.141 95.3698 192.719C97.1418 193.858 99.7155 194.702 101.867 193.985Z" fill="#231F20"/>
<path d="M161.737 119.222C161.019 121.078 163.298 121.373 163.045 122.808C161.315 123.947 161.315 126.099 160.893 127.702L159.88 128.124C159.458 125.972 160.598 123.694 160.302 121.669C158.446 122.091 158.277 123.947 157.264 125.255C157.686 127.997 155.113 130.276 156.252 132.723C156.252 135.17 154.227 136.9 154.691 139.6C153.13 141.035 154.269 143.06 152.961 144.79C152.834 146.646 152.117 148.249 152.666 150.401C151.653 151.835 153.383 153.565 152.075 155.126C152.497 156.434 151.484 157.7 150.936 158.713C149.923 158.713 149.206 159.303 148.193 159.135C146.632 157.7 148.067 154.958 147.603 152.975C149.037 151.414 146.717 148.798 149.459 147.785C148.615 145.211 149.459 142.638 150.767 140.486C149.754 137.912 151.484 136.478 151.78 134.031C153.214 133.145 151.653 131.162 153.087 130.318C152.961 128.883 152.666 127.575 153.973 126.436C154.986 123.989 154.1 119.812 157.138 118.968C158.446 118.968 159.585 119.981 160.429 118.547C161.019 118.504 161.441 118.757 161.737 119.222Z" fill="#FBC7AB"/>
<path d="M41.4492 126.816L43.601 125.803C46.3434 126.225 46.47 128.546 48.3264 130.402C47.7358 133.145 51.1954 133.567 50.0563 136.267C50.9001 137.828 51.4908 139.98 52.7987 141.288C53.3894 142.722 52.6721 144.874 54.5285 145.591C54.2332 148.038 56.0896 150.19 56.2584 152.764C57.8195 154.198 56.5537 156.645 57.9882 158.08C59.0008 158.67 59.0008 159.81 58.7055 160.653C57.9883 161.075 57.9882 161.666 57.9882 162.215C56.5537 161.919 55.963 163.227 55.4146 164.071V164.198C54.2754 164.198 54.2754 162.763 53.6847 161.919C53.8113 161.202 54.1066 159.767 53.6847 158.755C52.7987 157.025 53.9801 155.042 52.3768 153.439C52.2502 152.595 52.7987 152.004 52.6721 150.992C50.225 149.431 51.533 146.097 49.5078 144.241C48.3686 142.216 49.2124 139.938 47.2295 138.334C46.2169 134.875 45.6684 131.035 42.6306 128.588C41.618 127.871 41.0695 129.179 40.9008 129.727L42.3352 134.031C41.7446 133.314 38.6224 134.621 39.2975 132.006C36.2597 131.288 38.8756 128.715 38.2849 126.689C38.8756 125.677 40.0147 125.55 41.0273 126.099L41.4492 126.816Z" fill="#FBC7AB"/>
<path d="M93.3867 223.434C94.9478 223.012 96.8464 223.434 97.8589 224.447C99.5888 224.447 101.572 223.308 103.175 224.447C103.597 224.869 103.597 225.586 104.314 225.755C105.749 226.177 109.04 224.025 109.462 226.894C110.474 228.328 111.613 226.894 113.048 227.02C114.609 230.733 120.347 228.877 120.22 233.645C120.516 236.809 121.36 239.678 120.094 242.547C120.22 244.403 117.351 243.264 116.929 244.994C115.2 243.56 112.921 246.429 111.318 244.403C110.01 244.277 108.871 244.699 108.154 245.711C107.858 247.019 106.846 245.416 106.128 245.585C103.85 245.585 101.53 243.138 99.5044 244.994C97.7746 244.15 95.2009 244.572 93.4711 243.981C92.1631 244.108 91.0239 243.56 90.0114 242.674C87.9862 238.497 90.3067 234.066 89.5895 229.468C88.4503 227.738 90.3067 225.755 89.1675 224.151L89.7582 222.295C90.5177 223.73 92.5428 222.295 93.3867 223.434Z" fill="#FBC7AB"/>
<path d="M90.8131 23.8691C91.9523 25.599 94.2728 26.6116 96.5511 25.8943C97.6903 24.7552 99.7155 25.599 101.277 25.4724C102.12 27.3288 104.441 27.0335 106.002 26.485C108.323 26.485 109.884 29.9447 112.162 28.5102C113.428 28.6368 114.44 28.2148 115.622 27.9195C117.183 29.9447 115.495 31.0839 114.314 32.223C112.879 32.3496 111.445 32.6449 110.727 33.9529C109.166 33.9529 106.129 33.6575 105.411 35.6827C103.85 36.6953 102.374 36.6953 100.939 37.7079C99.0827 39.7331 94.9057 38.7205 93.8931 41.8848C92.1633 40.8722 90.8553 42.6021 89.2942 42.4755C88.1551 44.2054 86.0033 45.5133 83.8516 45.218C81.5732 45.3445 82.2905 48.9308 79.8434 48.087C78.8308 49.2261 77.8182 49.2261 76.3837 48.8042C72.924 49.2261 72.6709 53.825 68.6205 52.8124C67.9032 54.9642 65.7515 55.5548 63.8951 56.3987C63.7685 57.8332 62.5871 56.694 61.7433 57.2425C59.7181 57.5378 58.579 60.2803 56.3006 59.9849C54.4442 60.9975 52.7143 62.432 51.9971 64.1619C48.4108 63.1493 47.6936 67.1574 43.9386 65.8917C41.3649 67.0309 39.5085 69.6467 36.4707 70.0687C35.3315 71.6297 32.7579 70.4906 31.4499 71.9251C30.142 73.3596 29.1716 75.8067 26.7245 75.5113C26.0072 74.9207 26.5979 74.2034 26.7245 73.4862C25.7119 70.7437 28.5809 69.0139 27.1464 66.7355C27.8636 64.4572 30.7327 63.8665 30.6061 61.2928C32.3359 60.449 34.3189 60.7022 36.2175 60.1537C38.3693 59.4364 39.3819 56.2721 42.3775 57.1159C43.0947 56.2721 44.5292 56.8206 45.6684 56.5252C47.8201 55.808 49.8453 54.0781 52.2924 53.9516C53.0097 53.6562 53.0097 52.8124 53.0097 51.9264C52.419 51.0404 51.2799 51.3357 50.436 51.0404C49.5922 52.1795 48.1577 52.4749 46.9763 52.7702C46.1325 51.2091 47.3982 48.0448 44.8246 47.6229C44.2339 47.4963 43.3901 47.4963 43.0947 48.0448V53.7828C40.521 53.6562 42.2509 50.745 41.5337 49.1839C40.8164 48.4667 41.4071 47.1588 40.2257 46.8634C39.5085 46.7368 38.9178 47.1588 38.3693 47.7494C38.3693 50.0278 38.2427 52.4749 38.4959 54.3735C37.9052 54.5 37.9052 55.0907 37.3567 54.9641C37.0614 52.517 38.7912 49.2261 35.9222 47.0744C37.3567 45.3445 37.2301 42.4755 39.9304 41.7583C40.943 39.6065 41.6602 37.0328 44.4027 36.4422C47.1451 37.0328 46.4278 33.8685 48.8327 33.9951C50.1407 31.6745 52.419 32.1386 54.2754 30.5354C54.5708 28.0883 56.7225 28.3836 58.5789 27.371C61.026 28.5102 62.2918 24.9239 65.0342 26.3584C66.7641 24.2067 68.4939 28.6368 70.1816 25.9365C71.4895 23.3628 74.6117 26.7803 75.793 23.7848C76.9322 23.7848 78.662 25.2193 79.3793 23.4894C82.9234 24.1645 87.5222 28.1726 90.8131 23.8691Z" fill="white"/>
<path d="M154.269 50.4497C156.125 51.4623 157.728 52.0108 159.88 52.3061C160.597 53.7406 162.159 52.6014 162.623 53.8672C163.34 54.8798 164.648 54.1625 165.492 54.5844C167.77 56.3143 170.217 57.7488 173.255 56.905C174.394 57.7488 175.575 57.3269 176.968 57.2003C179.415 59.2255 183.296 59.9427 186.714 59.0567C186.123 59.9005 185.153 60.4912 184.436 60.9131C183.128 62.4742 181.398 64.3728 179.288 64.0775C177.98 63.0649 176.968 64.7947 175.997 63.3602C174.436 59.0567 170.133 63.6556 167.812 60.4912C165.787 61.6304 164.352 59.0567 162.496 60.0693C160.766 59.9427 160.049 56.7784 157.897 57.9175C155.872 57.9175 154.438 55.6392 152.75 57.0315C150.598 56.1877 148.278 58.0441 146.59 56.1877C145.029 55.597 144.143 58.2129 142.877 56.3143C140.725 56.905 137.983 56.6096 136.295 57.8754C134.439 55.7236 131.274 58.2973 129.545 56.0189C128.532 56.1455 127.984 55.597 127.098 55.7236C128.954 53.4453 132.836 53.5718 134.27 50.9982C136 51.1247 138.278 52.3061 140.303 51.2935C143.172 53.0233 145.62 48.2557 147.771 51.8842C150.218 51.8842 151.653 49.859 154.353 50.3231V50.4497H154.269Z" fill="#654A50"/>
<path d="M125.579 60.0694C128.152 59.3521 131.021 60.7866 133.173 62.2211C134.903 61.3773 137.477 59.9428 139.206 61.6304C141.232 58.5927 142.497 63.7822 144.523 60.7444H146.97V60.871C148.995 62.0102 150.556 59.5631 152.286 60.871C154.438 59.7318 155.155 64.0353 157.307 61.5883C159.163 62.0102 159.88 63.8666 162.032 63.8666C163.888 63.74 165.914 64.5838 167.475 64.1619C168.318 66.0183 171.187 64.5838 171.652 66.7356C172.791 67.5794 174.521 67.1575 175.533 68.2967C176.546 67.5794 177.812 67.706 178.993 68.1701C180.849 70.0265 182.706 68.592 184.731 69.8999H186.292C185.997 72.0517 182.706 71.2079 182.832 73.3596C181.102 73.7815 180.259 75.0895 178.529 73.7815C177.685 73.655 176.672 75.2161 176.377 73.7815C175.364 72.4736 174.352 73.4862 173.213 73.655C172.073 71.6298 168.909 73.2331 167.77 71.2079C166.335 71.3344 165.914 69.6468 164.184 70.1953C164.184 69.6046 163.298 69.1827 163.045 68.6342C161.61 68.3389 159.458 70.364 158.868 68.2123C157.855 67.3263 157.307 68.6342 156.294 67.6216C154.733 66.0605 152.581 66.609 150.387 66.0605C149.248 68.2123 146.674 66.3559 145.071 67.7904C142.624 68.5076 139.755 65.6386 138.447 69.0983C138.152 69.8156 137.139 69.8155 136.295 69.8155C135.283 69.3936 134.017 68.9717 133.131 69.8155C129.123 70.8281 127.519 65.8074 123.638 67.2419C122.33 66.3981 121.064 66.3981 120.642 64.6682C118.912 62.9384 118.364 66.5246 116.465 64.7948C115.031 64.4994 114.187 62.3477 112.457 63.3603V62.643C114.018 59.774 118.912 61.6304 119.798 57.7488C121.824 58.3395 124.397 58.1708 125.579 60.0694Z" fill="#654A50"/>
<path d="M111.36 66.6511C113.639 66.9465 114.946 70.9547 117.52 68.6763C118.659 69.5623 119.377 71.8407 121.528 71.1234C124.102 71.8407 127.562 71.25 129.713 73.4439C130.726 72.7267 131.865 73.3174 132.878 73.5705C136.169 72.2626 140.177 73.6971 143.215 71.5453C144.944 71.25 147.096 72.136 148.362 70.8281C149.375 71.25 150.514 71.6719 151.948 71.5453C152.539 70.5327 153.805 71.1234 154.817 70.9547C155.239 71.5453 155.535 72.0938 156.125 72.5157C157.56 72.5157 158.868 73.5283 160.007 72.0938C160.851 72.8111 161.737 74.5409 163.298 73.5283C165.745 74.6675 167.897 76.988 170.766 76.2708C172.495 78.7179 176.377 77.4099 178.36 78.7179C180.807 79.7305 182.368 78.1272 184.815 79.4351C185.406 79.3086 186.123 79.3085 186.672 79.3085C186.081 80.6165 184.52 80.3211 183.929 81.5869C182.199 82.5995 181.356 84.034 179.752 85.0466C177.474 85.0466 175.027 86.1857 173.297 84.2027C172.158 85.0466 170.85 84.3293 169.711 84.2027C167.854 82.7682 165.407 81.3337 162.96 81.2072C162.243 78.9288 158.361 81.6291 158.066 78.7601C157.644 78.4647 156.927 78.0428 156.336 78.4647C154.902 78.5913 153.467 77.4521 152.033 77.3256C149.881 75.7645 147.603 78.6335 145.577 76.7349C144.143 77.1568 142.708 75.1738 141.569 76.4395C139.713 76.8614 136.97 75.7223 135.831 77.5787C133.806 77.874 130.937 76.7349 129.671 78.5913C128.785 79.0132 129.081 77.7475 128.363 77.874C126.338 79.3085 124.06 79.4351 121.739 78.8866C120.305 76.313 116.423 78.4647 115.115 75.8911C114.693 75.7645 114.271 75.4691 113.681 75.4691C112.837 77.9162 111.107 75.4691 109.673 75.5957C109.082 73.7393 106.382 74.8785 105.96 73.022C103.217 73.3174 104.23 69.8577 101.361 70.2796C101.487 68.2544 97.1839 70.2796 99.0825 67.8325C100.939 68.1278 102.542 67.1152 103.808 65.9761C104.525 67.1152 105.242 65.5542 105.664 65.5542C107.9 65.6386 109.208 66.5246 111.36 66.6511Z" fill="#654A50"/>
<path d="M101.445 74.1191C103.302 78.7179 108.618 79.1398 112.499 80.7431C113.217 80.7431 113.807 79.6039 114.356 80.4478C114.356 81.0384 115.073 81.4604 115.495 81.8823C116.212 81.8823 116.508 80.5743 117.52 81.2916C119.841 84.1606 124.397 82.3042 127.266 82.8527C127.984 82.262 128.406 81.5447 129.545 81.8401C130.557 83.6965 131.823 80.9963 133.004 82.1354C134.312 81.8401 134.439 80.5743 136.169 80.7009C139.333 79.393 142.497 81.4182 145.62 80.279C147.771 80.9963 150.345 80.8697 152.244 82.3042C154.395 81.8823 155.408 83.0214 157.138 83.3168C157.729 84.1606 157.982 85.4685 159.163 84.8779L160.007 83.8653C160.302 84.5825 160.724 85.4264 161.568 85.5951C164.015 84.5825 165.45 87.1562 168.023 87.0296C169.331 89.1814 172.327 86.7343 173.466 89.6033C175.744 88.0422 178.909 89.6033 181.06 90.6159C182.79 90.6159 184.351 90.4893 186.081 90.4893C185.069 91.2066 184.52 92.6411 182.917 92.2192C181.356 94.2443 178.318 94.9616 176.166 96.1008C174.732 93.2317 171.863 96.5227 170.555 93.6537C166.842 95.6788 165.239 90.7847 161.652 91.7972C161.062 91.3753 160.935 90.2362 159.923 90.0674C159.079 90.0674 158.066 91.08 157.349 90.4893C156.758 88.7595 154.48 91.08 154.311 89.0548C153.72 87.7469 151.315 88.9282 151.02 87.325C148.278 85.4685 145.873 88.886 143.13 87.0296C141.401 87.6203 139.544 86.3124 137.983 87.6203C137.688 88.9282 136.548 87.7469 135.831 87.9156C133.806 89.4767 130.937 89.0548 128.068 88.9282C127.773 89.6455 127.055 89.3501 126.338 89.3501C125.916 88.7595 124.904 88.0422 124.06 88.5063C121.908 91.6707 118.322 88.6329 115.579 89.097C114.989 88.3797 113.85 88.2532 113.006 88.5063L112.879 88.9282C111.445 87.4937 108.871 88.211 108.154 86.3546C107.563 85.9326 107.015 85.5107 106.129 85.6373C103.555 84.2028 101.234 82.8949 98.5341 82.051C97.8168 80.6165 95.0744 81.7557 95.7917 79.3086C94.7791 77.7475 92.5007 78.1694 90.7709 77.5788C89.7583 76.5662 88.6191 75.8489 87.48 75.0051C87.9019 73.9925 88.9145 73.1487 89.7583 72.558C90.8975 71.9673 91.6147 73.5706 92.5008 72.558C92.9227 70.7016 93.9352 71.7142 95.2432 71.7142C97.0152 73.2752 99.167 74.2878 101.445 74.1191Z" fill="#654A50"/>
<path d="M89.2519 81.8822C90.0958 82.4729 91.2771 80.5743 91.699 82.1775C91.5725 82.8948 91.8256 83.3167 92.4163 83.7386C93.2601 83.148 93.9773 84.1605 94.568 84.4559C97.437 84.5825 98.745 87.4515 101.741 87.6202C102.163 88.2109 102.036 89.1813 102.88 89.3501C104.905 88.7594 104.905 90.9112 106.466 91.0799C108.491 91.2065 110.348 91.7972 111.613 93.3583C114.06 93.2317 116.929 91.7972 119.081 93.4848C120.642 93.0629 122.246 93.9067 123.554 92.5988C124.397 93.0207 125.41 94.4552 126.844 93.6114C128.996 91.2909 131.739 94.2021 134.017 92.4722C136.169 91.755 139.164 90.3205 141.78 91.5862C143.088 91.2909 143.805 90.2783 144.944 91.5862C146.084 89.8564 148.235 91.2909 149.965 90.9955C150.809 93.2739 153.678 92.5566 154.859 94.2865C159.036 92.5566 161.188 96.8601 165.07 96.5648C167.348 96.8601 169.247 99.8557 171.947 98.2946C173.803 97.9993 174.985 101.29 176.672 99.1385C178.824 98.8431 181.82 100.573 183.845 99.0119C184.689 99.8979 185.279 98.2946 186.419 98.7166C184.14 99.6026 183.845 102.894 181.271 102.725C178.824 103.737 177.812 106.438 174.647 105.889C171.905 103.442 169.331 107.745 166.462 105.298C165.028 105.594 164.901 103.442 163.424 103.442C160.555 102.134 157.686 100.7 154.395 100.278C152.539 100.995 150.936 98.4212 149.079 99.8557C147.94 99.9823 147.94 98.4212 146.927 98.4212C144.902 100.278 142.751 97.1133 140.768 99.1385C140.05 98.8431 139.206 98.8431 138.742 99.4338C137.73 98.7166 136.422 97.4086 135.283 98.59C134.439 100.024 132.54 98.7166 131.275 99.3072C129.545 100.151 127.098 97.5774 125.958 100.151C125.072 99.7292 124.102 99.5604 122.921 99.5604C121.781 100.573 120.052 99.9823 118.912 100.868C116.465 100.278 113.892 99.9823 111.74 99.1385C109.588 98.7166 106.846 99.1385 105.58 96.8601C104.863 96.5648 104.019 96.8601 103.428 96.9867C101.698 95.5522 99.1247 95.6788 97.0995 94.413C96.973 93.2739 96.2557 92.1347 95.0744 91.3753C92.5007 92.5144 91.0662 88.5062 88.7457 89.6454C87.7331 87.789 85.0328 88.6328 84.8641 86.1857C83.1342 85.595 82.1216 83.6121 79.8433 84.034C78.7041 83.1901 77.6915 81.7556 76.9742 80.3211C77.5649 76.7349 82.1216 79.3085 83.7249 77.0302C86.8049 77.7053 86.5095 81.165 89.2519 81.8822Z" fill="#654A50"/>
<path d="M68.2829 87.0297C68.8735 88.5908 67.1437 89.7721 68.4094 91.3332L67.8188 92.4724C68.8313 95.2148 65.7936 97.7885 67.8188 100.067L67.6922 101.67C66.553 101.248 67.1015 99.5183 66.553 98.5057C63.0933 98.9276 65.2873 94.4975 62.2495 94.4975C61.8276 93.063 60.5196 91.7551 60.3931 90.0253C61.2791 89.6033 63.1355 89.8987 63.5574 88.2954C63.9793 87.8735 63.8528 87.2828 64.6966 87.2828C65.8358 87.9157 67.1437 87.325 68.2829 87.0297Z" fill="#654A50"/>
<path d="M55.7942 104.834C58.2413 106.691 54.655 109.011 57.1021 110.699C54.3597 112.134 55.541 108.547 53.2205 108.252L52.0813 107.408C50.5203 103.948 46.3433 100.784 48.4951 96.2274C49.3389 96.2274 49.9296 97.24 50.6468 96.2274C51.3641 95.932 50.6468 95.0882 51.4907 94.7929C53.2205 96.1008 54.2331 93.9069 55.3723 93.2318C57.6506 97.3665 54.1909 100.531 55.7942 104.834Z" fill="#654A50"/>
<path d="M44.6134 102.851C43.4743 105.298 47.4825 105.72 45.7526 107.746C46.4699 109.602 47.1871 111.036 46.8918 113.062C48.917 114.792 46.3011 117.787 48.4529 119.39L48.0309 121.711C46.4699 122.302 46.4699 118.842 44.3181 119.981C43.8962 117.703 41.2803 118.251 41.5757 115.678C40.7318 112.387 38.4113 109.518 38.5801 105.763C37.8628 104.75 37.8628 102.598 38.5801 101.332C40.3099 101.459 41.7444 100.025 43.6009 100.025L44.6134 102.851Z" fill="#654A50"/>
<path d="M147.94 103.864C148.235 105.594 148.657 107.028 149.501 108.294L149.375 114.032C148.784 112.302 145.366 111.458 146.506 108.716C144.354 107.703 142.497 105.678 142.497 102.978C143.51 103.105 144.227 102.134 145.366 102.556C146.084 103.273 146.97 103.991 147.94 103.864Z" fill="#654A50"/>
<path d="M156.589 106.016C156.463 108.589 155.281 111.163 153.552 112.64C153.678 110.066 152.539 107.619 152.539 104.877C154.142 103.695 155.281 105.13 156.589 106.016Z" fill="#654A50"/>
</svg>
